<svg xmlns="http://www.w3.org/2000/svg" xmlns:xlink="http://www.w3.org/1999/xlink" xmlns:inkscape="http://www.inkscape.org/namespaces/inkscape" version="1.1" width="594.95999" height="841.92" viewBox="0 0 594.95999 841.92">
<defs>
<clipPath id="clip_0">
<path transform="matrix(.24,0,0,.24,0,0)" d="M118.75 118.75H2362.793V3390.625H118.75Z" clip-rule="evenodd"/>
</clipPath>
</defs>
<g clip-path="url(#clip_0)">
<path transform="matrix(.14653532,0,0,.14652659,28.5,350.93876)" d="M268.85157 897.9994C259.72273 897.9996 250.58 898.3231 241.46802 897.9314 223.58635 897.1628 205.7203 896.02157 187.85073 894.984 177.20627 894.366 166.5674 893.65206 155.46514 892.4536 155.33612 882.8407 155.529 873.7474 156.06087 864.6739 156.31143 860.39889 155.01625 858.64596 150.49883 858.9298 141.4284 859.4999 132.33496 859.8341 123.2468 859.95889 111.115657 860.1254 98.97062 860.2841 86.85181 859.8631 81.85152 859.68936 80.31358 862.0259 80.056 866.08419 79.575099 873.66116 79.33092 881.2531 78.98825 888.8388 63.335916 888.2241 47.68259 887.6334 32.031736 886.9831 25.773854 886.723 19.511694 886.4536 13.270096 885.95529 9.391548 885.6457 5.54791 884.89877 1.3443019 884.6741 1 873.64578 1 862.29159 1.000004 850.4686 1.665444 849.2067 2.8585952 848.4482 2.913572 847.6147 3.391564 840.3674 3.621376 833.1041 4.008657 825.8502 4.984251 807.5769 5.976212 789.3043 7.015624 771.03457 7.623537 760.34927 8.375045 749.6722 8.991099 738.9873 10.025286 721.0502 10.982133 703.1087 12.012114 685.1714 12.635198 674.3203 13.354942 663.4748 13.995392 652.6247 15.014867 635.3532 15.991154 618.0793 17.015486 600.80819 17.287989 596.2135 17.812127 591.62979 17.95936 587.0327 18.102126 582.57516 20.407782 580.0577 24.498478 579.0272 63.05339 569.315 101.63621 559.7129 140.17206 549.92587 176.50946 540.69717 212.80707 531.3113 249.10926 521.94448 289.00633 511.65 328.88136 501.2703 368.77949 490.9801 402.57597 482.26356 436.39808 473.64649 470.19657 464.93778 492.41816 459.21208 514.63009 453.44779 536.8167 447.5886 540.99618 446.48484 542.9224 448.4772 542.9038 452.04508 542.8548 461.45848 542.5113 470.87913 541.9542 480.27726 541.6906 484.72627 544.066 489.12733 548.9308 492.1057 549.3549 504.5259 549.6722 516.182 549.65579 527.99966 545.8597 530.8208 545.72427 534.56369 546.0183 538.42257 546.31649 542.33419 546.8717 546.2373 546.95626 550.1518 547.1104 557.2907 546.50808 564.4842 547.2111 571.5565 547.55416 575.00747 545.74349 579.94229 551.32217 582.07986 551.7673 588.3484 551.9479 594.37356 551.9826 600.3995 552.0206 606.99856 549.3422 609.69357 542.7522 610.01449 541.11526 610.0942 539.47909 610.31979 537.85787 610.57546 528.62277 612.03237 519.4063 613.61428 510.15678 614.9715 497.64857 616.80697 485.09623 618.3468 472.5988 620.2496 454.11967 623.0631 435.67558 626.10617 417.2089 629.0026 412.24333 629.78146 407.25 630.3834 402.00035 631.1035 402.00035 632.9911 402.00575 634.3065 401.99958 635.62197 401.667 706.7116 401.32566 777.8013 401.00526 848.891 400.92097 867.5937 400.901 886.2966 400.85148 904.9994 394.21357 904.9934 387.57566 904.9874 380.47206 904.49136 380.67085 897.96469 381.88865 891.9301 381.91139 885.8912 382.0762 842.0932 381.99995 798.2943 381.99995 754.4957 381.99995 752.7494 381.99995 751.003 381.99995 748.53768 375.87699 749.07369 370.6349 749.548 365.38999 749.98849 353.23954 751.00906 341.0901 752.0433 328.93583 753.01657 312.01289 754.3717 295.08888 755.71707 278.15873 756.97726 273.1689 757.34866 271.09495 759.28958 271.01274 764.45138 270.65306 787.0433 270.34974 809.6361 269.99543 832.22817 269.65415 853.98696 269.27546 875.7451 268.9108 897.50357 268.90803 897.6691 268.87205 897.8341 268.85157 897.9994M361 573.4645C361.33134 577.53799 361.34925 581.66757 362.06596 585.67208 363.19346 591.97177 367.9479 595.35989 374.38627 594.9993 379.28947 594.72476 384.7979 589.2487 384.9321 583.83279 385.16728 574.3422 385.1582 564.83798 384.9387 555.3467 384.80476 549.5546 379.23164 544.29818 373.55027 544.00106 367.8513 543.7031 363.03453 547.34536 362.10285 553.77468 361.2106 559.93228 361.32698 566.23599 361 573.4645M429 549.8003C428.9341 542.97567 423.65678 537.0623 417.57783 537.0015 411.46607 536.9404 406.0094 542.8895 406.00227 549.6447 405.9931 558.2854 405.98744 566.9261 406.0039 575.5668 406.0178 582.84909 410.7597 587.9801 417.45414 588 424.16517 588.01998 428.9789 582.8926 428.99555 575.65847 429.01469 567.35018 429 559.0418 429 549.8003M290.59724 672C283.01329 672.5966 279.03919 676.8012 279.0021 684.28219 278.98893 686.941 279 689.59988 279 692.2587 279 694.0867 279 695.9147 279 697.7426 279.00007 709.3481 281.8859 712.2061 293.39649 712 299.09696 711.8979 302.9283 708.17587 302.9857 702.539 303.04823 696.391 303.0029 690.2419 302.99928 684.09329 302.99473 676.3884 299.4367 672.66708 290.59724 672M340.99998 690.4134C340.6727 685.85848 340.70143 681.2422 339.9291 676.76406 338.93757 671.0146 333.7271 667.46456 328.02726 668.0034 321.94496 668.5785 317.24165 672.80227 317.05299 678.3541 316.8333 684.8184 316.831 691.3019 317.05607 697.7658 317.2375 702.97549 321.7543 707.6508 326.40687 707.9985 334.83717 708.6284 338.55308 706.3849 339.9711 699.5538 340.52793 696.8712 340.66938 694.10256 340.99998 690.4134M333.12654 556.0031C325.93263 556.03158 321.25736 559.9328 321.05039 566.5403 320.83183 573.51748 320.9004 580.50888 321.03898 587.4901 321.12269 591.70657 325.55784 596.5738 329.2224 597.0104 335.62745 597.7733 340.50166 595.0736 340.9319 590.2771 341.56254 583.2461 341.60816 576.16458 342.0183 569.1112 342.3847 562.8112 339.81257 558.42648 333.12654 556.0031M258.845 686.385C258.4695 685.6634 258.1811 684.87759 257.70439 684.2305 254.71082 680.16738 249.04532 677.801 245.27483 679.3178 241.01804 681.0302 237.46202 683.92416 237.9076 690.4722 238.33536 696.7589 237.82033 703.1056 238.10065 709.40896 238.19477 711.52517 239.04299 713.8856 240.27367 715.61788 243.1775 719.7051 247.65746 719.88497 251.84917 718.5049 256.28187 717.0454 258.9702 713.63967 258.9908 708.67758 259.0205 701.53097 258.98838 694.38406 258.845 686.385M304 593.26358C304 586.6204 304.01243 579.97738 303.9964 573.3342 303.98118 567.02566 300.458 563.09158 294.78007 563.00027 288.52253 562.89968 284.07716 567.1799 284.01515 573.5125 283.94844 580.3211 283.98045 587.13088 284.00593 593.94 284.02799 599.83517 288.82197 605.06588 294.08277 604.9937 299.53834 604.9189 303.94126 600.1232 304 593.26358M199.85578 616.37478C202.95479 621.44796 206.29064 623.0233 211.7248 621.9801 215.45784 621.26339 219.75984 616.4517 219.93088 612.0982 220.17874 605.7894 220.1768 599.45706 219.94005 593.1475 219.75507 588.21798 214.6096 583.3629 209.74813 583.002 204.30728 582.5981 199.56508 585.7214 199.16077 591.46066 198.59238 599.52896 199.1916 607.67947 199.85578 616.37478M241 591.52127C241 596.33596 240.98217 601.15078 241.005 605.9654 241.02825 610.8632 245.46857 615.6767 250.19351 615.97128 254.28028 616.226 259.86338 611.12606 259.9524 606.6544 260.11436 598.5224 260.1261 590.3821 259.94743 582.25076 259.8496 577.7998 254.54329 573.06637 250.10265 573.006 245.5773 572.9445 241.07907 577.6493 241.00702 582.56387 240.96808 585.21969 241.00003 587.8765 241 591.52127M203.04613 719.97238C210.37146 720.03079 214.64711 716.8866 214.94252 710.7547 215.20636 705.2782 215.14948 699.7736 214.95212 694.2915 214.78238 689.57656 209.7405 684.4216 205.36316 684.0699 202.01366 683.80087 196.84238 687.5852 196.10453 691.88717 195.22373 697.0226 195.17649 702.3225 195.04088 707.5583 194.89893 713.0384 197.15869 717.2901 203.04613 719.97238M135.53046 634.00057C141.11948 636.0654 146.49558 631.154 146.90918 625.0083 147.31099 619.0377 147.56647 612.9483 146.83376 607.04159 146.12622 601.3378 142.9295 597.5032 136.79006 597.96707 131.52593 598.36477 129.00997 601.3624 129.00153 607.73788 128.99423 613.23568 129.21411 618.7443 128.93489 624.2279 128.69461 628.9467 130.38506 632.1609 135.53046 634.00057M156 711.36257C156.00435 713.0283 155.84215 714.7145 156.04366 716.356 156.7002 721.7042 160.62062 725.2274 165.48412 724.99917 170.30054 724.7731 173.94011 720.72006 173.98902 715.4126 174.03812 710.0825 174.15209 704.7458 173.9516 699.4227 173.78154 694.9075 170.81221 692.0939 166.78643 691.1517 162.81966 690.2234 158.80593 691.5566 157.7413 695.90628 156.59243 700.5999 156.53408 705.5605 156 711.36257M161 605.67037C161 609.49728 160.97794 613.3243 161.00557 617.15097 161.04039 621.975 164.18167 626.215 168.23883 626.97708 171.83435 627.6523 177.27886 624.967 177.86772 620.6249 178.79848 613.7622 178.4787 606.67477 178.11634 599.7121 177.8872 595.30966 174.51599 593.30429 170.35065 593.0378 166.03333 592.7615 163.17014 595.16256 161.67848 598.95596 160.99294 600.6994 161.19852 602.7932 161 605.67037M140.42227 698.95126C132.75551 694.5962 127.03341 697.7585 127.00322 706.3799 126.98581 711.3521 126.911518 716.3265 127.028049 721.2961 127.1274 725.53329 130.78441 729.9236 134.85514 729.80728 138.64675 729.6989 142.44196 727.95468 142.89739 723.5425 143.5503 717.2171 143.74135 710.8208 143.67092 704.45986 143.6525 702.79739 141.93706 701.1536 140.42227 698.95126M80.02486 643.5292C85.809879 646.1263 91.7588 642.6438 91.96092 636.35586 92.14182 630.72799 92.14308 625.0849 91.95181 619.4577 91.80458 615.1261 89.24134 612.5891 84.98389 612.0332 80.54234 611.4533 76.63547 613.9911 76.08726 618.3596 75.37707 624.0188 74.85008 629.79617 75.23502 635.45529 75.41294 638.07089 77.93808 640.52688 80.02486 643.5292M108.14094 606.346C103.90245 608.55526 101.33816 611.5164 101.899448 616.83676 102.38388 621.4286 101.94634 626.1128 102.0151 630.7547 102.08582 635.5298 104.88623 638.6636 109.2267 638.9977 113.73806 639.3449 117.24059 636.9548 117.907688 632.2889 118.621768 627.2943 119.10219 622.1852 118.893688 617.1589 118.58221 609.6505 115.73194 606.85897 108.14094 606.346M77.12735 736.6323C84.60752 738.7115 88.9695 735.4185 88.99696 727.65286 89.01341 723.00308 89.029499 718.35299 88.99188 713.7034 88.95171 708.7377 86.43021 705.5414 82.21312 705.0042 77.857608 704.44949 73.96008 706.6166 73.05759 711.1712 72.144969 715.77688 72.31807 720.59646 71.9971 725.32107 71.700038 729.6937 73.06219 733.34378 77.12735 736.6323M56.51771 617.0011C54.266084 618.57369 50.877485 619.664 49.968877 621.8062 46.822027 629.2254 46.73885 637.27328 49.620866 644.6808 50.581495 647.1499 55.120496 649.67807 57.956724 649.6043 61.629064 649.50888 65.073978 646.7354 65.01256 641.8981 64.953517 637.24819 65.0003 632.5968 64.999919 627.9461 64.99929 620.44387 64.57876 619.8453 56.51771 617.0011M61.819547 712.348C59.857034 708.0183 56.346059 706.1688 51.85813 707.09829 48.22474 707.8507 46.04999 710.4235 45.88892 714.39859 45.663709 719.9566 44.897676 725.53689 45.21364 731.05899 45.471868 735.57217 50.785894 740.1323 54.259664 739.92599 58.540063 739.67166 61.98607 735.1157 61.99627 729.6531 62.006505 724.17129 61.986627 718.68948 61.819547 712.348M99 716.5242C99.00004 719.51797 98.96911 722.5122 99.00778 725.50546 99.058589 729.43759 103.31979 733.96127 106.95134 733.9942 111.381198 734.0343 114.9082 730.57876 114.97927 725.9227 115.065578 720.26907 115.08017 714.6117 114.975399 708.9586 114.88457 704.0575 111.66336 700.9665 106.9499 701.0004 102.419589 701.033 99.15364 704.32 99.011249 709.0637 98.946399 711.224 99.000087 713.3878 99 716.5242Z" fill="#a4bed7"/>
<path transform="matrix(.14653532,0,0,.14652659,28.5,350.93876)" d="M673.9834 57.158189C689.4278 63.670824 704.8731 70.181247 720.31619 76.69711 726.8273 79.44437 733.3439 82.178989 739.8392 84.963329 746.4237 87.78598 749.0562 93.01255 749.0177 99.95984 748.9531 111.623249 748.8942 123.288639 749.04489 134.95046 749.11959 140.73184 749.73007 146.50444 749.97158 152.2863 750.09158 155.1595 749.8547 158.04587 749.9051 160.92407 749.9953 166.07701 753.6069 168.27585 757.71469 170.02953 767.54257 174.22515 777.3738 178.4129 787.1863 182.64432 790.5372 184.0893 792.11007 186.44663 792.07546 190.37236 791.9078 209.36615 791.9913 228.36223 792.00527 247.3575 792.00967 253.34435 793.9206 255.75627 799.6167 258.05064 808.6109 261.67347 817.55929 265.4172 826.45077 269.28517 831.54397 271.5008 832.1814 276.42716 832.96646 281.13914 833.07467 281.78858 832.9897 282.46977 832.99978 283.13615 833.3331 305.07695 833.6162 327.01869 834.0214 348.95817 834.24209 360.90357 834.66018 372.8454 835.00747 384.78834 835.32577 395.73228 835.6812 406.67515 835.9973 417.61915 836.347 429.72865 836.6629 441.83909 837.0079 453.94874 837.3291 465.22584 837.6529 476.5029 838.00436 487.77909 838.66036 508.83345 839.33059 529.8874 840.0084 550.941 840.3232 560.71878 840.5942 570.4987 841.0197 580.2718 841.6173 593.99667 841.8407 607.7671 843.23416 621.4149 843.87026 627.64468 846.94717 633.61959 848.86959 639.725 851.63308 648.5018 854.29397 657.3112 857.10848 666.0715 859.9517 674.92117 860.005 674.9496 868.89639 675.96267 886.8879 678.0127 904.90176 679.875 922.8766 682.06 940.50418 684.2027 958.07919 686.7774 975.70626 688.9246 991.0686 690.7959 1006.48916 692.1896 1021.8515 694.0606 1039.4786 696.2075 1057.0564 698.75796 1074.681 700.9269 1089.7124 702.7767 1104.7935 704.2199 1119.8274 706.05087 1137.7831 708.2377 1155.6984 710.75808 1173.6565 712.9237 1189.0213 714.7767 1204.4259 716.29727 1219.805 718.0352 1227.9783 718.959 1236.1404 719.98849 1244.2969 721.052 1250.6012 721.874 1252.2539 724.38577 1252.9983 733.5413 1254.3087 749.6551 1255.6315 765.76809 1257.0374 781.8737 1258.299 796.32449 1259.4995 810.7843 1261.0548 825.2047 1262.8182 841.55508 1265 857.8599 1266.8821 874.1981 1267.4271 878.9297 1264.8567 883.9103 1258.0542 884.14279 1241.3723 884.7128 1224.7124 885.9652 1208.0498 887.0415 1193.8767 887.95718 1179.7166 889.0732 1165.5432 889.98617 1148.88 891.05947 1132.2005 891.88839 1115.5435 893.0467 1098.5878 894.22579 1081.6543 895.72067 1064.7051 896.9968 1046.2633 898.38528 1027.8164 899.7065 1009.3684 901.0092 994.70309 902.045 980.03518 903.0491 965.3638 903.9939 949.0498 905.0446 932.7257 905.9414 916.41506 907.03866 903.2395 907.92507 890.0779 909.0168 876.9091 910.0048 858.96377 911.35128 841.0186 912.70077 823.0713 914.02029 809.2382 915.03726 795.39926 915.97457 781.5677 917.01138 764.45108 918.2945 747.34439 919.71487 730.22317 920.9315 722.7939 921.4594 715.3391 921.62716 707.4457 921.44216 706.3363 908.2115 705.59506 895.50057 705.0433 882.7815 704.58169 872.1393 704.462 861.482 703.9776 850.84109 703.0677 830.8505 701.6706 810.87686 701.07998 790.8783 700.1291 758.68197 699.777 726.4683 698.9501 694.2677 698.58499 680.04647 697.7244 665.83676 697.00259 651.62619 696.0463 632.8022 694.92007 613.9865 694.0337 595.1594 693.51919 584.2297 693.2726 573.2858 693.02108 562.3457 692.88589 556.4671 693.21609 550.57278 692.94546 544.7035 692.45108 533.9817 691.5249 523.2797 691.0348 512.55776 690.2484 495.3511 689.66598 478.13517 689.0055 460.9228 688.3322 443.37773 687.6753 425.83204 686.99929 408.28706 686.3425 391.2412 685.66909 374.19596 685.00588 357.15034 684.3361 339.9383 683.66946 322.72618 683.0025 305.514 682.33566 288.3019 681.668 271.08985 681.00479 253.8776 680.3351 236.49898 679.67019 219.1202 679.0033 201.74147 678.3363 184.36275 677.6767 166.98377 677.0007 149.6054 676.344 132.72605 675.5902 115.85003 675.0295 98.96755 674.5667 85.03489 674.3237 71.09492 673.9834 57.158189M744.02658 223.27079C745.30618 228.94586 748.5714 233.26834 752.91177 237.03199 755.8857 239.6108 758.50399 238.683 761.3639 237.1277 764.53958 235.4007 766.647 232.94647 765.9174 229.20069 765.2658 225.85526 764.3956 222.4673 763.01498 219.36855 760.849 214.50716 755.8922 211.86061 751.3152 213.13788 746.8141 214.39394 743.92776 217.37934 744.02658 223.27079Z" fill="#015f9c"/>
<path transform="matrix(.14653532,0,0,.14652659,28.5,350.93876)" d="M401.11946 905.33218C400.901 886.2966 400.92097 867.5937 401.00526 848.891 401.32566 777.8013 401.667 706.7116 401.99958 635.62197 402.00575 634.3065 402.00035 632.9911 402.00035 631.1035 407.25 630.3834 412.24333 629.78146 417.2089 629.0026 435.67558 626.10617 454.11967 623.0631 472.5988 620.2496 485.09623 618.3468 497.64857 616.80697 510.15678 614.9715 519.4063 613.61428 528.62277 612.03237 537.85787 610.57546 539.47909 610.31979 541.11526 610.0942 542.7522 610.01449 549.3422 609.69357 552.0206 606.99856 551.9826 600.3995 551.9479 594.37356 551.7673 588.3484 551.5823 581.77786 553.6797 581.20889 555.84579 581.18496 558.0072 581.6195 558.0026 591.8298 558.0026 601.5816 558.0026 610.87008 562.3331 610.87008 565.30068 611.16226 568.193 610.8197 580.9172 609.31289 593.61367 607.57467 606.33187 606.0154 615.64089 604.8741 624.9794 603.97158 634.2837 602.7957 643.4026 601.64328 652.48916 600.23666 661.6026 599.03817 663.93649 598.73129 665.8931 599.1505 666.0216 602.2833 666.2177 607.06588 666.80276 611.83328 666.9703 616.61599 667.3884 628.5566 667.74166 640.5006 667.98306 652.4461 668.6913 687.499 669.30197 722.554 670.019 757.6068 670.2258 767.7196 670.6749 777.8274 670.99197 787.9382 671.34036 799.04806 671.6559 810.1588 672.002 821.2688 672.32217 831.54617 672.7319 841.8211 672.9803 852.1001 673.3736 868.3756 673.5447 884.6574 674.06997 900.92819 674.2383 906.1447 675.3031 911.3278 675.78616 916.5422 675.8943 917.71017 675.28237 918.9448 675.00198 920.1488 663.3946 919.76589 651.78207 919.4975 640.181 918.97457 619.8439 918.05789 599.5126 917.00656 579.181 915.96957 567.12289 915.35446 555.0703 914.6296 543.0125 914.00656 523.014 912.9732 503.0115 912.01577 483.01417 910.9601 471.95405 910.3762 460.89744 909.71279 449.84568 908.987 433.68989 907.926 417.5399 906.7766 401.11946 905.33218M659.4344 681.8625C662.4952 679.9949 663.1818 677.23239 663.0568 673.7793 662.5825 660.6725 662.2767 647.55856 662.0232 634.44509 661.8912 627.61477 662.01156 620.77987 661.99679 613.947 661.982 607.1317 660.77096 605.73117 653.80538 606.07797 648.0646 606.36386 642.3585 607.3399 636.6358 607.99978 627.3114 609.0749 617.98037 610.09518 608.6625 611.22439 598.7042 612.4312 588.76419 613.7882 578.8048 614.9859 569.4848 616.1066 560.1471 617.0796 550.82308 618.1678 546.47756 618.67489 544.9115 621.31796 544.96188 625.54238 545.085 635.8735 544.93447 646.20779 545.0597 656.5389 545.08468 658.59756 545.8472 660.64718 546.3265 662.9775 555.9383 664.0109 565.25888 664.9799 574.5709 666.024 583.2064 666.99209 591.8517 667.9036 600.4585 669.08779 611.0153 670.54019 611 670.6515 611 681.5083 611 683.5082 611 685.508 611 687.5079 611 692.92587 611 698.3438 611 704.1111 619.46939 703.2767 627.5097 706.1208 634.4598 700.7901 642.562 694.5755 650.63369 688.3209 659.4344 681.8625Z" fill="#015f9c"/>
<path transform="matrix(.14653532,0,0,.14652659,28.5,350.93876)" d="M675.20388 920.4935C675.28237 918.9448 675.8943 917.71017 675.78616 916.5422 675.3031 911.3278 674.2383 906.1447 674.06997 900.92819 673.5447 884.6574 673.3736 868.3756 672.9803 852.1001 672.7319 841.8211 672.32217 831.54617 672.002 821.2688 671.6559 810.1588 671.34036 799.04806 670.99197 787.9382 670.6749 777.8274 670.2258 767.7196 670.019 757.6068 669.30197 722.554 668.6913 687.499 667.98306 652.4461 667.74166 640.5006 667.3884 628.5566 666.9703 616.61599 666.80276 611.83328 666.2177 607.06588 666.0216 602.2833 665.8931 599.1505 663.93649 598.73129 661.6026 599.03817 652.48916 600.23666 643.4026 601.64328 634.2837 602.7957 624.9794 603.97158 615.64089 604.8741 606.33187 606.0154 593.61367 607.57467 580.9172 609.31289 568.193 610.8197 565.30068 611.16226 562.3331 610.87008 558.0026 610.87008 558.0026 601.5816 558.0026 591.8298 558.41897 581.53829 564.5738 579.99917 570.29446 578.88027 576.0543 578.02499 588.1389 576.2305 600.2625 574.69387 612.33609 572.83078 626.28909 570.6777 640.1895 568.18246 654.14627 566.0551 659.24978 565.2772 660.9941 563.7387 660.9967 558.55459 661.0057 541.08389 661.00076 523.61318 661.31576 505.97975 662.4107 504.17973 663.19119 502.54246 664.14706 500.5371 628.74948 508.0068 594.0847 515.3219 558.0116 522.93417 558.0116 511.62648 558.0116 500.8939 558.0116 490.1613 581.25906 485.12849 604.5062 480.09474 627.75399 475.0635 635.5012 473.38688 643.1972 471.36683 651.0198 470.18849 655.05307 469.5809 656.00076 467.36524 655.9485 464.24757 655.74026 451.82859 655.26736 439.41426 655.0312 426.99555 654.8888 419.50419 655.0005 412.0079 655.00027 404.51387 654.9995 382.86433 654.87747 361.2138 655.0422 339.56556 655.1557 324.64897 655.62789 309.7344 656.01437 294.82087 656.27578 284.7336 656.6501 274.64915 657.0036 264.56446 657.6582 245.89203 658.26058 227.21735 659.0273 208.54944 659.5619 195.53429 660.4584 182.53372 660.9647 169.51776 661.4605 156.77414 661.5312 144.01386 662.03939 131.27089 662.5252 119.087207 662.40939 106.77418 664.2542 94.778888 666.2012 82.1199 670.154 69.769397 673.60696 57.22116 674.3237 71.09492 674.5667 85.03489 675.0295 98.96755 675.5902 115.85003 676.344 132.72605 677.0007 149.6054 677.6767 166.98377 678.3363 184.36275 679.0033 201.74147 679.67019 219.1202 680.3351 236.49898 681.00479 253.8776 681.668 271.08985 682.33566 288.3019 683.0025 305.514 683.66946 322.72618 684.3361 339.9383 685.00588 357.15034 685.66909 374.19596 686.3425 391.2412 686.99929 408.28706 687.6753 425.83204 688.3322 443.37773 689.0055 460.9228 689.66598 478.13517 690.2484 495.3511 691.0348 512.55776 691.5249 523.2797 692.45108 533.9817 692.94546 544.7035 693.21609 550.57278 692.88589 556.4671 693.02108 562.3457 693.2726 573.2858 693.51919 584.2297 694.0337 595.1594 694.92007 613.9865 696.0463 632.8022 697.00259 651.62619 697.7244 665.83676 698.58499 680.04647 698.9501 694.2677 699.777 726.4683 700.1291 758.68197 701.07998 790.8783 701.6706 810.87686 703.0677 830.8505 703.9776 850.84109 704.462 861.482 704.58169 872.1393 705.0433 882.7815 705.59506 895.50057 706.3363 908.2115 706.99099 921.38296 696.4596 921.50607 685.9327 921.1721 675.20388 920.4935Z" fill="#a4bed7"/>
<path transform="matrix(.14653532,0,0,.14652659,28.5,350.93876)" d="M2351 423.03907C2351 421.54695 2351.0284 420.54637 2350.9957 419.5478 2350.6026 407.57725 2352.6304 408.79927 2361.488 407.36708 2368.8424 406.17799 2376.6636 407.39076 2384.221 408.12635 2388.8038 408.57246 2391.2923 411.32496 2391.1 416.57658 2390.749 426.1816 2391 435.80867 2391 446 2400.6375 446 2409.82 445.29106 2418.8463 446.17747 2430.4219 447.3142 2441.659 444.07966 2453.1934 444.8528 2463.7135 445.55793 2465.5748 446.48304 2468.975 456.10826 2479.9608 487.2015 2491.083 518.2464 2502.1783 549.3008 2502.444 550.0456 2503.0089 550.6836 2503.4854 551.4537 2507.0352 540.3282 2510.5645 529.4291 2513.9898 518.4973 2520.7086 497.05509 2527.3468 475.58763 2534.067 454.1459 2536.2515 447.17579 2538.4083 445.19984 2545.5599 445.1037 2552.8226 445.00608 2560.1207 445.39799 2567.356 446.07774 2573.5352 446.65827 2576.136 450.5597 2574.235 456.39247 2566.4544 480.26478 2558.5355 504.0928 2550.5347 527.8926 2542.4793 551.8549 2534.3375 575.78866 2526.0994 599.6887 2520.2178 616.75308 2514.1756 633.763 2508.0208 650.73049 2507.3739 652.51358 2505.7769 654.5749 2504.113 655.24258 2500.0526 656.8724 2495.7296 658.5828 2491.448 658.76559 2483.8782 659.08877 2476.212 658.7188 2468.68 657.8375 2463.1944 657.19577 2461.954 654.0088 2464.0137 648.9337 2470.428 633.12857 2476.8062 617.3088 2483.2545 601.3556 2475.3096 595.27609 2474.3197 585.78707 2471.15 577.5735 2457.9779 543.44076 2445.2916 509.12049 2432.4354 474.8659 2431.5289 472.45063 2430.6915 470.00935 2429.581 466.90678 2428.909 469.46015 2428.3267 471.15745 2428.029 472.90327 2427.2615 477.4073 2424.8677 479.23789 2420.142 479.08866 2410.68 478.78984 2401.2022 478.99995 2391 478.99995 2391 481.13365 2391 482.8938 2391 484.65397 2391 505.9796 2390.9376 527.30569 2391.0633 548.63058 2391.0833 552.0488 2391.598 555.55459 2392.4822 558.85989 2394.9495 568.0844 2404.1268 572.4042 2414.2225 569.3426 2417.0506 568.48489 2419.957 567.7887 2422.6527 566.61636 2425.729 565.27859 2427.6744 566.9662 2427.7864 569.27957 2428.1666 577.12838 2428.3223 585.03567 2427.753 592.86166 2427.4908 596.46786 2424.6336 598.8564 2420.7379 600.224 2404.984 605.75436 2389.184 605.6674 2373.854 599.702 2361.9739 595.07919 2355.219 585.17007 2353.1475 572.73666 2351.7442 564.31338 2351.2088 555.6751 2351.0916 547.12197 2350.809 526.4666 2351 505.80476 2351 485.1455 2351 483.33949 2351 481.53346 2351 479 2346.8695 479 2343.1007 478.88066 2339.342 479.0237 2330.2515 479.3698 2329.8756 478.83143 2328.3067 469.5382 2327.3153 463.6643 2328.4298 457.34864 2329.1702 451.30094 2329.613 447.684 2332.0125 445.64686 2336.179 445.9286 2340.8138 446.242 2345.486 446.0004 2351 446.0004 2351 438.3601 2351 430.94584 2351 423.03907Z" fill="#0865a2"/>
<path transform="matrix(.14653532,0,0,.14652659,28.5,350.93876)" d="M1531.004 202.94388C1527.8491 215.57212 1522.9829 226.91202 1515.4935 237.19704 1503.577 253.56159 1487.2368 262.8717 1468.1238 267.97373 1453.69 271.82664 1438.9536 273.14717 1424.0371 273.02867 1408.0418 272.90159 1392.0447 273.01145 1376.0484 272.9957 1366.1019 272.98594 1362.0046 268.84288 1362.0034 258.78746 1361.9967 198.63448 1361.9971 138.48152 1362.0029 78.32855 1362.004 67.98321 1366.0148 64.00675 1376.4321 64.00251 1396.9275 63.994169 1417.4396 63.480119 1437.9135 64.14418 1459.0289 64.829059 1479.6066 69.02078 1497.3231 81.27804 1516.1862 94.32858 1527.3477 112.82492 1531.9996 135.26859 1534.735 148.4653 1535.7649 161.837 1534.8643 175.22719 1534.2492 184.37015 1532.3523 193.42688 1531.004 202.94388M1484.1275 206.51741C1492.1465 186.09355 1492.7583 165.04344 1488.7728 143.80434 1485.9017 128.50461 1478.3566 115.800388 1465.2865 106.83503 1456.0875 100.5251 1445.5368 97.889278 1434.6831 97.16008 1424.6327 96.48486 1414.5014 97.01618 1404.4312 97.01618 1404.4312 144.71488 1404.4312 191.73117 1404.4312 238.01988 1416.2958 238.01988 1427.7595 238.62816 1439.1356 237.88745 1459.8876 236.5363 1474.9785 226.2204 1484.1275 206.51741Z" fill="#0865a2"/>
<path transform="matrix(.14653532,0,0,.14652659,28.5,350.93876)" d="M3253.3907 153.85662C3259.5567 168.15969 3255.089 190.73232 3244.712 201.89624 3234.982 212.36382 3222.8343 217.08089 3209.0479 219.11725 3197.6768 220.79688 3186.7464 220.38094 3176.1165 215.67543 3175.1724 215.2576 3173.1846 215.41754 3172.6717 216.07788 3167.1336 223.2101 3167.2293 231.0915 3176.0025 235.37456 3178.1385 236.4173 3180.7374 236.8415 3183.1478 236.93605 3195.0806 237.40407 3207.0389 237.37656 3218.9554 238.07881 3232.0006 238.84757 3244.6629 241.13819 3255.8123 248.88539 3268.48 257.68754 3272.7703 273.8271 3270.6085 286.50944 3266.7828 308.9566 3251.6912 320.69038 3230.99 327.2022 3215.8629 331.96064 3200.41 332.66889 3184.9202 331.81239 3172.179 331.10783 3159.6597 328.89808 3147.6646 323.49043 3126.7589 314.06538 3121.434 289.97309 3134.0325 271.6796 3137.7203 266.32496 3142.8035 261.93144 3147.1949 257.15379 3128.2095 244.05248 3129.5416 221.03749 3148.0894 202.21681 3144.9776 196.01399 3140.8582 190.261 3139.0997 183.85938 3132.4735 159.73761 3139.7884 134.32759 3164.1724 122.08945 3177.8856 115.2071 3192.7279 113.17719 3207.9439 115.92189 3225.0738 119.011829 3242.3409 117.78774 3259.5633 117.975978 3271.119 118.10227 3272.8843 119.746959 3272.9969 131.32988 3273.016 133.32857 3273.0999 135.33419 3272.9754 137.32544 3272.4029 146.48145 3269.7379 148.99991 3260.753 148.99999 3257.469 149.00002 3254.185 149 3250.39 149 3251.5164 150.8531 3252.337 152.20322 3253.3907 153.85662M3222.9049 297.54035C3229.6304 292.626 3231.4698 285.49693 3229.686 278.1149 3228.0023 271.14427 3221.6563 268.13298 3214.967 267.59565 3203.6016 266.68269 3192.177 266.49403 3180.7745 266.0748 3180.052 266.04826 3179.1036 266.46858 3178.6033 267.00227 3175.1553 270.682 3170.48 273.9079 3168.6849 278.29637 3164.899 287.55293 3165.2332 297.1343 3177.4522 300.95429 3181.0269 302.07185 3184.6876 303.27183 3188.381 303.58467 3200.1134 304.57826 3211.8028 304.71818 3222.9049 297.54035M3188.822 144.00826C3183.0565 145.68128 3178.1346 148.72 3175.5269 154.21593 3173.9473 157.54496 3173.3529 161.3678 3172.5064 165.01308 3170.3868 174.1445 3176.7828 187.70854 3187.0377 190.6213 3202.1627 194.91736 3215.648 189.13356 3219.5133 175.92052 3222.4796 165.77956 3221.4459 156.29662 3213.208 148.77594 3206.4095 142.56888 3198.2579 141.92377 3188.822 144.00826Z" fill="#0865a2"/>
<path transform="matrix(.14653532,0,0,.14652659,28.5,350.93876)" d="M1362 431C1362.0001 420.66838 1362.2128 410.83009 1361.9069 401.00798 1361.7633 396.40217 1364.1513 393.53486 1367.8666 393.3268 1377.877 392.76628 1387.9596 392.71177 1397.9683 393.27024 1402.3389 393.51414 1404.1253 396.99 1404.1039 401.83158 1403.9223 442.99037 1403.8482 484.1512 1404.0977 525.30929 1404.1675 536.8278 1407.0415 547.87387 1414.6353 556.9903 1419.7427 563.12197 1426.6581 566.93338 1434.337 568.5643 1448.1304 571.49368 1461.4909 570.7242 1473.5984 562.1711 1482.7036 555.739 1486.8307 546.4885 1488.8943 536.10299 1489.7556 531.7677 1489.9469 527.24288 1489.9555 522.80337 1490.0317 482.6437 1489.9979 442.4839 1490.002 402.32414 1490.0026 395.29859 1491.411 393.39439 1498.5288 393.08399 1507.2246 392.70484 1515.9579 392.78083 1524.6597 393.09217 1530.0193 393.28398 1531.9866 395.73139 1531.9889 401.012 1532.0079 444.33787 1532.5723 487.67469 1531.7459 530.9848 1531.3606 551.1694 1524.6369 569.8098 1509.2929 584.1483 1498.1583 594.55307 1484.6301 600.5345 1469.7753 602.8126 1459.5303 604.3838 1448.9979 605.2309 1438.6618 604.79519 1421.7913 604.08407 1405.4183 600.6595 1391.1223 590.67996 1376.0072 580.1288 1367.3976 565.3848 1364.1522 547.60238 1362.6209 539.2115 1362.1587 530.53646 1362.0917 521.9833 1361.8556 491.8238 1362 461.66136 1362 431Z" fill="#0865a2"/>
<path transform="matrix(.14653532,0,0,.14652659,28.5,350.93876)" d="M2177.039 526.01107C2166.2862 518.8905 2160.0975 509.16877 2158.4249 496.74494 2157.854 492.50477 2157.975 488.17146 2157.821 484.7838 2153.3035 483.80717 2149 483.2359 2144.9334 481.9281 2134.2232 478.48377 2126.9879 484.20826 2120.0574 490.89805 2118.3992 492.49888 2117.001 494.3674 2115.4637 496.09538 2110.3939 501.79319 2108.6793 508.2423 2108.8223 516.02249 2109.2943 541.6767 2108.8497 567.34677 2109.1253 593.0068 2109.1815 598.2108 2106.925 600.6728 2102.467 600.849 2093.2718 601.2126 2084.0445 601.2087 2074.847 600.8832 2070.1719 600.7177 2067.8419 598.28646 2067.8697 592.82339 2068.099 547.33108 2068.0677 501.83695 2067.9429 456.3438 2067.918 447.24986 2068.167 446.81004 2077.4625 445.3166 2083.8463 444.29093 2090.6429 445.4608 2097.2113 446.1007 2101.0797 446.47764 2103.351 448.73329 2103.0689 453.18553 2102.764 457.99595 2103 462.8406 2103 468.57646 2106.2003 464.93626 2109.0238 461.945 2111.5997 458.75389 2119.7962 448.59956 2129.855 442.25477 2143.3973 443.04197 2146.1707 443.20317 2148.967 443.67466 2151.6607 444.36335 2158.216 446.03944 2159.8106 448.13288 2159.9713 455.259 2160.1024 461.08485 2159.9976 466.91603 2159.9976 473.643 2162.9757 469.1325 2165.2154 465.06999 2168.0865 461.51765 2176.6693 450.89787 2188.676 446.34114 2201.5638 444.14466 2216.2469 441.64216 2230.758 442.7733 2244.927 447.86375 2257.1448 452.2531 2259.0562 454.58454 2258.9637 467.60798 2258.938 471.21369 2258.9139 474.92094 2258.0968 478.39515 2256.9368 483.32493 2255.1776 483.7077 2250.6146 481.91947 2242.095 478.58073 2233.6239 474.88865 2224.805 472.61628 2217.803 470.81214 2210.3079 471.24125 2203.5828 474.85197 2193.7955 480.10673 2192.9083 492.64277 2202.541 497.96903 2211.8236 503.1015 2221.8973 506.82228 2231.6915 511.00367 2242.448 515.59597 2252.9644 520.7845 2259.7408 530.66616 2268.6778 543.6991 2269.1744 558.13259 2264.013 572.6903 2257.5982 590.784 2242.914 599.01077 2225.4212 602.8579 2207.0118 606.9067 2188.783 605.6608 2170.945 599.1173 2160.1514 595.1578 2156.9295 591.1436 2157.0413 579.84219 2157.0804 575.90359 2157.2518 571.9043 2157.9805 568.0496 2159.01 562.6062 2161.2596 561.8671 2166.4383 564.1405 2174.5174 567.6872 2182.5328 571.4988 2190.881 574.27969 2199.1378 577.02999 2207.6907 576.8591 2216.1649 574.11007 2222.5694 572.03237 2226.7408 568.13168 2227.9149 561.4814 2229.142 554.5293 2225.7489 549.37368 2220.111 546.18026 2214.3028 542.89016 2207.8739 540.71279 2201.8 537.8692 2193.621 534.0398 2185.5223 530.0388 2177.039 526.01107Z" fill="#0865a2"/>
<path transform="matrix(.14653532,0,0,.14652659,28.5,350.93876)" d="M1892.3234 137.73535C1898.877 149.44966 1900.8578 161.92966 1900.9401 174.70142 1901.1293 204.0288 1901.0003 233.35823 1901 262.68684 1901 271.2497 1901.0907 272.10966 1892.3651 273.03477 1883.7817 273.94474 1874.9741 273.07905 1866.2908 272.56053 1862.1234 272.3117 1860.8801 269.44468 1860.9069 265.21418 1861.0862 236.88655 1861.1163 208.55643 1860.9194 180.22905 1860.8692 172.99954 1859.2323 166.11 1855.4223 159.56967 1850.0242 150.30339 1836.1914 148.1441 1828.3872 151.76091 1819.0671 156.08029 1812.37 163.19898 1805.9806 170.75318 1804.9967 171.91652 1805.0409 174.16371 1805.0379 175.91046 1804.9851 205.57225 1804.8677 235.2353 1805.126 264.89494 1805.1708 270.03587 1803.0617 272.6536 1798.5785 272.83293 1789.2183 273.20735 1779.8228 273.20603 1770.4622 272.8373 1765.9979 272.66145 1763.865 270.09736 1763.8789 264.93656 1764.061 197.44797 1764.0869 129.9585 1763.9177 62.469816 1763.8882 50.731237 1765.003 50.682588 1776.7177 49.22717 1783.6724 48.36314 1790.9219 49.42342 1797.9933 50.096315 1803.3651 50.607465 1804.9888 52.86547 1804.9927 58.348615 1805.0094 81.8448 1804.9999 105.34102 1805 128.83722 1805 130.60938 1805 132.38153 1805 134.28923 1810.8677 130.20362 1816.2268 126.21965 1821.8308 122.616489 1840.0128 110.92626 1867.9752 112.09126 1885.1921 127.889659 1888.0281 130.49205 1889.8314 134.21967 1892.3234 137.73535Z" fill="#0865a2"/>
<path transform="matrix(.14653532,0,0,.14652659,28.5,350.93876)" d="M2477 182.04309C2477 210.02462 2476.8587 237.51451 2477.1248 265.00044 2477.175 270.19694 2474.9322 272.6699 2470.4766 272.84748 2461.2843 273.2139 2452.0596 273.20524 2442.8643 272.88508 2438.191 272.72233 2435.8582 270.30757 2435.8739 264.8444 2436.0675 197.37314 2436.082 129.90093 2435.9217 62.4295 2435.894 50.739404 2436.9979 50.74136 2448.2564 49.253225 2455.3568 48.31476 2462.786 49.42375 2470.022 50.099424 2475.3707 50.598825 2476.9893 52.88023 2476.9932 58.374048 2477.0093 82.030818 2477 105.68761 2477 129.34439 2477 130.949 2477 132.5536 2477 134.29666 2483.001 130.1012 2488.4322 125.91493 2494.2308 122.32196 2513.035 110.67024 2541.1448 112.28805 2557.4903 128.26995 2564.9898 135.60274 2569.3553 145.33152 2570.9234 155.79003 2575.186 184.21755 2572.1649 212.86069 2572.9647 241.39713 2573.1978 249.72043 2572.8433 258.06019 2573.0733 266.38365 2573.1705 269.89277 2571.494 272.07279 2568.5948 272.5976 2557.9793 274.51927 2547.3333 275.23237 2536.731 272.08433 2533.105 271.00773 2532.974 268.51185 2532.978 265.528 2533.0147 237.03997 2533.1558 208.55048 2532.9058 180.06458 2532.83 171.46173 2531.2154 163.00333 2524.855 156.36458 2517.6573 148.85198 2507.094 147.26319 2496.8856 153.88945 2489.8363 158.46512 2483.6444 164.66846 2478.0513 171.01029 2476.155 173.1601 2477.2645 177.96076 2477 182.04309Z" fill="#0865a2"/>
<path transform="matrix(.14653532,0,0,.14652659,28.5,350.93876)" d="M269.12446 898.3347C268.87205 897.8341 268.90803 897.6691 268.9108 897.50357 269.27546 875.7451 269.65415 853.98696 269.99543 832.22817 270.34974 809.6361 270.65306 787.0433 271.01274 764.45138 271.09495 759.28958 273.1689 757.34866 278.15873 756.97726 295.08888 755.71707 312.01289 754.3717 328.93583 753.01657 341.0901 752.0433 353.23954 751.00906 365.38999 749.98849 370.6349 749.548 375.87699 749.07369 381.99995 748.53768 381.99995 751.003 381.99995 752.7494 381.99995 754.4957 381.99995 798.2943 382.0762 842.0932 381.91139 885.8912 381.88865 891.9301 380.67085 897.96469 380.0091 904.42007 367.66389 904.22598 355.31587 903.61349 342.96794 902.99996 322.69624 901.99276 302.42256 901.02267 282.15449 899.94699 277.8915 899.7207 273.64918 899.10586 269.12446 898.3347Z" fill="#015f9c"/>
<path transform="matrix(.14653532,0,0,.14652659,28.5,350.93876)" d="M3005.363 266.72444C2989.7264 256.83973 2980.2406 242.93418 2977.1673 225.24565 2975.23 214.09423 2973.867 202.60933 2974.2384 191.33975 2974.9876 168.62757 2981.4776 147.70384 2999.4239 132.22629 3010.242 122.89622 3023.142 117.557819 3037.408 116.06548 3044.1414 115.3611 3050.9573 114.89966 3057.715 115.08422 3075.5389 115.57101 3092.3416 119.7653 3106.0904 131.7969 3114.27 138.95493 3119.6705 148.27979 3122.958 158.67234 3127.388 172.6762 3128.911 187.12967 3127.9046 201.69316 3126.355 224.12557 3120.2862 244.90952 3102.2762 260.106 3091.496 269.20198 3078.7657 274.33003 3064.7322 275.95964 3059.8197 276.53007 3054.8607 276.86305 3049.916 276.9634 3034.357 277.27937 3019.418 274.69969 3005.363 266.72444M3083.9027 173.93276C3081.2159 165.5052 3078.0274 157.23807 3070.269 152.15381 3055.849 142.70415 3028.2857 144.05968 3019.9427 169.39247 3015.1617 183.90938 3014.7078 198.65683 3017.4749 213.33437 3018.833 220.53707 3021.827 227.92337 3025.8975 234.01178 3032.6466 244.10648 3043.6937 246.04615 3054.9954 244.84938 3063.439 243.95532 3070.8592 240.83719 3076.4517 233.44226 3083.538 224.07215 3085.297 213.29782 3085.7789 202.37212 3086.1824 193.21692 3084.6527 183.97652 3083.9027 173.93276Z" fill="#0865a2"/>
<path transform="matrix(.14653532,0,0,.14652659,28.5,350.93876)" d="M2887.774 248.74875C2878.531 261.61595 2866.1466 269.68959 2851.5035 273.56089 2831.7239 278.7902 2811.67 278.97523 2792.1348 272.03 2769.751 264.07203 2756.3314 247.91538 2752.1434 224.71178 2750.1634 213.74167 2748.8614 202.4071 2749.2364 191.30464 2750.0035 168.5911 2756.4979 147.66867 2774.4517 132.20194 2785.2733 122.87947 2798.1754 117.540859 2812.4459 116.06397 2819.1805 115.367038 2825.9969 114.88879 2832.7537 115.08634 2850.5675 115.60722 2867.3843 119.758548 2881.121 131.82244 2889.289 138.99573 2894.6654 148.31932 2897.9683 158.71097 2902.421 172.719 2903.8568 187.17098 2902.9 201.7356 2901.8018 218.45401 2898.0577 234.51767 2887.774 248.74875M2840.457 242.15195C2850.194 237.95786 2855.193 229.93875 2857.9722 220.2246 2861.7596 206.98468 2861.8763 193.5017 2859.9149 180.00716 2858.7513 172.0008 2856.3756 164.28569 2851.2486 157.77802 2843.6954 148.1906 2833.1968 146.00621 2821.8988 147.14028 2813.5836 147.97492 2806.114 151.01288 2800.98 158.41483 2795.5872 166.18935 2792.8983 174.66803 2791.7603 184.03554 2790.0809 197.85886 2790.677 211.41313 2795.3675 224.48874 2798.7943 234.04152 2805.1463 241.34017 2815.5037 243.90671 2823.6783 245.93231 2831.84 245.3782 2840.457 242.15195Z" fill="#0865a2"/>
<path transform="matrix(.14653532,0,0,.14652659,28.5,350.93876)" d="M2729.9417 150.28943C2730.9896 159.3514 2732.7508 167.99262 2732.8616 176.65497 2733.2283 205.31023 2733 233.97313 2733 262.6331 2733 271.24943 2733.0882 272.14033 2724.4136 273.00047 2715.6788 273.86659 2706.7347 272.87629 2697.9012 272.3685 2694.1314 272.15177 2692.9188 269.55854 2692.9346 265.7721 2693.0548 237.11264 2693.1387 208.45134 2692.9117 179.79319 2692.8475 171.69207 2691.2376 163.72457 2685.7066 157.24114 2679.5474 150.02097 2669.4447 148.05284 2660.4888 151.81742 2651.0059 155.80338 2644.413 163.14359 2638.0238 170.69838 2637.0364 171.86598 2637.043 174.09909 2637.0399 175.84037 2636.9844 205.5 2636.8446 235.16132 2637.1397 264.81809 2637.1944 270.32286 2634.8262 272.7143 2630.1585 272.8817 2620.9622 273.21153 2611.7357 273.2119 2602.541 272.85029 2598.0848 272.675 2595.8543 270.22209 2595.8782 265.01673 2596.0889 219.3617 2596.0557 173.70519 2595.9498 128.04944 2595.9302 119.60283 2595.8966 118.831859 2605.2567 117.33773 2611.8035 116.29268 2618.7718 117.45422 2625.4986 118.146038 2629.0836 118.51471 2631.3367 120.73348 2631.0665 124.97544 2630.7733 129.58438 2631 134.22643 2631 137.92977 2639.7115 132.10208 2648.2159 125.31355 2657.6705 120.32597 2675.2432 111.055507 2701.0904 112.92129 2717.1998 127.90854 2723.5233 133.79146 2727.2728 141.62213 2729.9417 150.28943Z" fill="#0865a2"/>
<path transform="matrix(.14653532,0,0,.14652659,28.5,350.93876)" d="M1593 459.85847C1593 462.48359 1593 464.64585 1593 465.7487 1602.163 459.7791 1611.1886 452.5345 1621.3353 447.59028 1639.0429 438.9618 1664.1177 441.33283 1679.42 456.1653 1688.5574 465.022 1693.5156 476.7345 1693.8208 489.3401 1694.6661 524.25857 1694.6105 559.1983 1695.075 594.12747 1695.128 598.1289 1693.1517 600.6131 1689.8992 600.7651 1680.3845 601.20968 1670.8272 601.1842 1661.305 600.8338 1656.6862 600.6639 1654.8357 597.8157 1654.8801 592.78158 1655.1292 564.6272 1655.1091 536.4688 1654.9314 508.31333 1654.8801 500.19169 1653.3555 492.2336 1648.0618 485.6247 1640.9019 476.68629 1628.0007 475.00444 1617.2915 482.57643 1610.9204 487.08103 1605.5789 493.0897 1600.0502 498.6942 1599.0253 499.73326 1599.0438 502.06993 1599.0405 503.80863 1598.984 533.46456 1598.8515 563.122 1599.1348 592.7753 1599.1868 598.21908 1596.9545 600.72537 1592.2034 600.8864 1583.007 601.1983 1573.7838 601.19369 1564.5881 600.8641 1560.0825 600.70266 1557.8563 598.29067 1557.88 593.0663 1558.0875 547.417 1557.9999 501.76628 1558.0001 456.116 1558.0001 447.77497 1558.5453 446.4162 1566.6891 445.4009 1572.8341 444.63484 1579.3005 444.95838 1585.4336 445.96067 1593.0818 447.21058 1592.9976 447.72663 1593 455.3975 1593.0004 456.73023 1593 458.06294 1593 459.85847Z" fill="#0865a2"/>
<path transform="matrix(.14653532,0,0,.14652659,28.5,350.93876)" d="M2030.0719 598.0658C2011.6233 604.2086 1993.152 606.93386 1974.2194 603.92556 1965.8606 602.5973 1957.427 600.85446 1949.4735 598.03927 1930.6698 591.3834 1920.4353 576.76278 1915.0446 558.28897 1911.2105 545.1498 1910.1365 531.5994 1911.1124 518.0558 1912.6973 496.06016 1918.3796 475.58866 1935.5016 459.94728 1945.1785 451.1072 1956.6721 446.22068 1969.3524 444.13996 1983.5189 441.81538 1997.6111 442.41093 2011.3786 446.97944 2033.3994 454.28657 2045.6157 470.1942 2049.81 492.31224 2051.5804 501.64778 2051.6107 511.3573 2051.9168 520.9133 2052.1929 529.51998 2047.4142 533.9942 2038.8497 533.9969 2012.0316 534.0053 1985.2136 534 1958.3955 534 1956.4414 534 1954.4874 534 1952.5844 534 1951.0166 553.8149 1961.0588 570.2672 1980.4762 573.1268 1999.0671 575.8645 2016.417 571.68759 2033.6589 565.70126 2042.5346 562.6196 2044.9548 564.40286 2044.9992 573.81228 2045.0054 575.14486 2045 576.4774 2045 577.81 2045 591.8697 2043.9822 593.284 2030.0719 598.0658M2003.4552 508C2006.5448 508 2009.6343 508 2012.6327 508 2013.9232 494.0417 2008.6626 480.67289 1999.7601 476.01976 1988.0807 469.9152 1976.0028 469.7896 1965.2465 477.59794 1955.4036 484.743 1952.8844 495.88343 1951.907 508 1969.2338 508 1985.8516 508 2003.4552 508Z" fill="#0865a2"/>
<path transform="matrix(.14653532,0,0,.14652659,28.5,350.93876)" d="M2184.395 264.72004C2168.055 253.11069 2160.8353 236.4628 2158.2845 217.92339 2155.0245 194.22707 2156.2257 170.69358 2168.0648 149.0683 2177.5953 131.65952 2192.2926 120.92365 2211.9329 116.932559 2227.283 113.813327 2242.3895 114.145999 2257.2996 118.989589 2279.3809 126.16274 2291.5738 142.14237 2295.8052 164.24665 2297.5919 173.57814 2297.607 183.29265 2297.918 192.8496 2298.199 201.48921 2293.4393 205.99355 2284.9112 205.9965 2258.0906 206.00583 2231.2698 205.99999 2204.4493 206 2202.4864 206 2200.5235 206 2198.6258 206 2196.9288 225.66669 2207.0335 242.25899 2226.4283 245.12477 2245.019 247.87168 2262.3739 243.69281 2279.6214 237.72089 2288.4998 234.64672 2290.9525 236.43138 2291 245.77147 2291.0985 265.02668 2291.1524 265.1964 2272.7093 271.0718 2255.721 276.4837 2238.3792 278.22148 2220.5179 276.20149 2207.7244 274.7546 2195.716 271.62846 2184.395 264.72004M2257.905 165.94766C2256.6968 162.9048 2255.8497 159.65106 2254.2166 156.85642 2247.9254 146.09006 2237.7393 143.21224 2226.179 144.05287 2208.4149 145.34465 2197.8604 161.3285 2198.69 179.72599 2218.6048 179.72599 2238.525 179.72599 2259.308 179.72599 2258.8416 175.18447 2258.4105 170.98912 2257.905 165.94766Z" fill="#0865a2"/>
<path transform="matrix(.14653532,0,0,.14652659,28.5,350.93876)" d="M1602.0631 115.998607C1625.847 112.99618 1647.8632 115.740848 1665.3866 133.1218 1675.749 143.40003 1680.7211 156.71837 1681.9546 171.2535 1682.5557 178.3358 1682.8561 185.45713 1682.9523 192.5654 1683.0739 201.55184 1678.5408 205.99509 1669.6987 205.9974 1642.8842 206.00446 1616.0697 206.00002 1589.2551 206.00003 1587.4408 206.00005 1585.6266 206.00002 1583.8657 206.00002 1581.5462 220.06069 1588.5018 237.4189 1602.6066 242.71772 1612.6682 246.49764 1623.2261 247.34708 1633.754 245.06504 1644.778 242.67554 1655.7117 239.83951 1666.613 236.92929 1672.736 235.29473 1675.4258 236.65459 1675.908 242.94286 1676.2637 247.57901 1676.2024 252.27689 1675.9323 256.92436 1675.5243 263.94673 1670.5446 266.871 1664.642 269.0056 1647.0325 275.3738 1628.8265 278.2218 1610.2295 276.85157 1594.4212 275.68678 1579.0053 272.46269 1566.1101 262.05473 1555.1289 253.19153 1548.7047 241.58718 1545.5731 228.08052 1539.2488 200.80359 1539.8793 173.92487 1553.2505 148.75547 1562.4341 131.46883 1577.2974 120.74266 1596.8016 116.9869 1598.4105 116.67708 1600.0128 116.332729 1602.0631 115.998607M1626.3084 145.97954C1600.164 137.57305 1583.0448 155.77245 1583.517 179.68375 1603.5209 179.68375 1623.5283 179.68375 1643.4813 179.68375 1645.5938 167.17708 1639.2501 150.38791 1626.3084 145.97954Z" fill="#0865a2"/>
<path transform="matrix(.14653532,0,0,.14652659,28.5,350.93876)" d="M3488.2423 188.04077C3497.6566 186.32308 3506.616 184.11086 3515.7078 183.14084 3526.2069 182.02068 3536.8228 181.99556 3548.5477 181.44 3547.8533 174.58426 3547.8404 167.6149 3546.3126 160.99504 3544.0806 151.3222 3536.1766 146.48854 3525.1583 145.9369 3508.9793 145.1269 3494.3172 150.05515 3480.1065 156.98444 3470.1182 161.85485 3465.4229 158.88817 3464.9805 147.51111 3464.4029 132.64852 3466.6429 128.73186 3483.7828 122.21945 3500.021 116.049678 3517.097 113.837139 3534.3734 115.15817 3545.4505 116.00519 3556.4793 117.87146 3566.4237 123.68801 3577.0806 129.92147 3583.3594 139.19298 3585.814 151.01917 3587.0457 156.95255 3587.8668 163.08466 3587.9053 169.13307 3588.1077 200.7925 3588.0008 232.45392 3587.999 264.11466 3587.9989 271.03974 3586.998 273.01625 3580.242 273.62788 3573.5572 274.23307 3566.731 273.4207 3559.9759 273.0606 3555.4078 272.81709 3553.7464 270.01039 3553.9749 265.67033 3554.112 263.07054 3554 260.45768 3554 258.45396 3546.801 263.0452 3539.9793 268.18263 3532.4903 272.01713 3513.5872 281.69618 3481.0745 277.73597 3466.7828 260.24134 3457.8714 249.3333 3455.6788 236.62628 3457.4918 222.9949 3459.9259 204.69246 3471.6248 194.4206 3488.2423 188.04077M3542.3577 207.00005C3537.035 207.00019 3531.6859 206.66548 3526.3956 207.08008 3518.7286 207.68093 3510.9425 208.4072 3504.479 213.26627 3498.1929 217.99233 3496.0648 224.70984 3497.137 232.14812 3498.1287 239.0257 3501.7862 244.14797 3508.9017 246.50801 3521.569 250.70973 3540.7874 243.59812 3547.42 231.91858 3547.8013 231.24713 3547.9632 230.36467 3547.9676 229.57903 3548.008 222.28878 3547.9913 214.9982 3547.9913 207.35428 3546.192 207.21793 3544.756 207.10915 3542.3577 207.00005Z" fill="#0865a2"/>
<path transform="matrix(.14653532,0,0,.14652659,28.5,350.93876)" d="M2087 202C2087 167.54358 2087 133.58715 2087 99.00005 2084.7496 99.00005 2082.9749 99.00009 2081.2 99.000049 2066.3682 98.999668 2051.535 98.882579 2036.7055 99.07536 2032.655 99.12802 2030.3854 96.98009 2030.2114 93.72965 2029.7734 85.546489 2029.7617 77.305957 2030.2311 69.125827 2030.4182 65.8634 2032.8472 63.91198 2036.8507 63.922204 2084.5125 64.04388 2132.1746 64.073078 2179.836 63.912969 2186.128 63.891828 2187.1065 67.41107 2187.726 73.62427 2188.391 80.292949 2187.57 87.17565 2186.7906 93.89453 2186.408 97.18986 2184.1234 99.14113 2180.1217 99.08334 2165.4595 98.87159 2150.7926 98.99983 2136.1273 99.00004 2134.3226 99.00006 2132.5179 99.00003 2130 99.00003 2130 101.32188 2130 103.25214 2130 105.1824 2130 156.67723 2129.8275 208.17299 2130.1114 259.66627 2130.1905 273.98924 2127.6104 272.29884 2116.6292 273.72816 2109.031 274.71714 2101.0816 273.62797 2093.3609 272.79933 2089.3787 272.37196 2086.8585 269.86988 2086.9088 264.99235 2087.1234 244.16345 2087 223.3311 2087 202Z" fill="#0865a2"/>
<path transform="matrix(.14653532,0,0,.14652659,28.5,350.93876)" d="M1893.0603 521.10348C1885.6709 543.80459 1878.3362 566.1073 1871.0149 588.4145 1867.3053 599.7174 1865.1265 601.7182 1853.0311 601.8932 1842.4319 602.0465 1831.8136 601.453 1821.2164 600.9304 1816.216 600.6839 1812.7245 598.13156 1811.0521 593.0874 1796.5319 549.2863 1781.5457 505.63444 1767.5744 461.65965 1762.936 447.06059 1764.9352 445.78837 1779.7461 445.1046 1786.1555 444.80876 1792.6144 445.77589 1799.0568 445.94627 1804.4379 446.08857 1806.6629 449.20719 1808.123 453.93296 1816.3076 480.42097 1824.6824 506.8502 1832.9631 533.30856 1835.8504 542.53359 1838.6554 551.7843 1841.5606 561.2266 1850.7787 530.3208 1859.9474 499.49754 1869.1817 468.6939 1870.971 462.725 1872.756 456.72767 1875.0868 450.96336 1875.8842 448.99116 1878.2807 446.3898 1880.0571 446.30155 1889.7411 445.82075 1899.4618 445.90504 1909.1648 446.07688 1912.7052 446.1396 1914.5217 448.32246 1914.006 452.06568 1913.5131 455.6435 1913.62 459.40684 1912.52 462.78117 1906.209 482.1404 1899.6172 501.4081 1893.0603 521.10348Z" fill="#0865a2"/>
<path transform="matrix(.14653532,0,0,.14652659,28.5,350.93876)" d="M2897.1495 754C2911.7906 754 2925.9598 753.7092 2940.1114 754.0834 2953.7506 754.444 2966.8304 757.0495 2977.9447 765.9388 2984.698 771.3401 2988.6859 778.49459 2990.6014 786.5556 2992.6663 795.2459 2992.761 804.0998 2990.1707 812.9487 2986.8624 824.2511 2979.703 832.03518 2969.3687 837.4367 2973.8797 839.6213 2978.2513 841.5279 2982.4239 843.8 2993.1654 849.64859 2999.147 859.4562 3001.6239 870.7679 3005.67 889.2484 3002.144 906.3072 2987.6947 919.7013 2978.4747 928.24777 2967.0733 933.13247 2954.731 933.7927 2934.3365 934.88369 2913.8724 934.7262 2893.436 934.9598 2887.5499 935.0271 2884.0233 931.3365 2884.0196 925.35317 2883.9869 871.5396 2883.9857 817.72616 2884.017 763.9126 2884.0216 756.5062 2887.3209 754.008 2897.1495 754M2918.5286 851C2915.1119 851 2911.695 851 2908.33 851 2908.33 872.7302 2908.33 893.6382 2908.33 914.9992 2921.4449 914.9992 2934.235 915.0399 2947.025 914.9558 2948.9649 914.94308 2950.901 914.3507 2952.8389 914.025 2966.8135 911.67666 2977.385 900.354 2978.0438 887.59457 2979.059 867.923 2969.3365 855.62588 2954.5933 853.22109 2943.0882 851.3444 2931.2257 851.6591 2918.5286 851M2946.9913 775.08639C2934.1463 774.57498 2921.3016 774.0635 2908.4254 773.55087 2908.4254 793.7063 2908.4254 812.72286 2908.4254 831.99307 2919.3245 831.99307 2929.824 832.4056 2940.2647 831.80197 2944.8145 831.53897 2949.6666 829.92947 2953.6485 827.65097 2965.109 821.0929 2967.9534 810.06008 2966.8829 797.87948 2965.85 786.13027 2958.959 778.7878 2946.9913 775.08639Z" fill="#0865a2"/>
<path transform="matrix(.14653532,0,0,.14652659,28.5,350.93876)" d="M2353.6475 224.20229C2360.7188 243.97313 2382.3873 246.68787 2397.172 239.80619 2403.2218 236.9905 2408.761 232.97837 2414.2738 229.13889 2419.4134 225.55913 2422.4793 226.37696 2422.8839 232.56508 2423.3853 240.23656 2422.9559 247.96543 2423.0579 255.66779 2423.1165 260.0864 2420.4517 262.8242 2417.213 264.87498 2400.8529 275.23454 2383.0733 278.702 2363.8453 276.18516 2349.3114 274.2827 2336.4075 269.2436 2326.2012 258.59669 2316.7127 248.69843 2311.6492 236.35979 2309.1978 223.10569 2305.2408 201.70952 2305.7689 180.38498 2313.037 159.67838 2321.979 134.20298 2340.0948 119.834 2366.8609 115.90528 2383.2952 113.49306 2398.6282 116.000408 2413.1226 124.02498 2419.4832 127.546398 2423.7415 132.19838 2423.0618 140.15583 2422.709 144.28928 2422.9554 148.47834 2423.0133 152.64112 2423.0687 156.63416 2422.4378 161.0906 2418.608 162.28958 2416.2366 163.03197 2412.4385 160.97113 2409.943 159.223 2403.3245 154.58608 2396.791 150.31285 2388.559 148.68729 2373.0316 145.62107 2358.1737 152.28755 2353.0487 168.56404 2347.2486 186.98325 2347.171 205.48589 2353.6475 224.20229Z" fill="#0865a2"/>
<path transform="matrix(.14653532,0,0,.14652659,28.5,350.93876)" d="M3381.1685 272.9505C3357.085 264.54438 3345.7186 246.17902 3341.2066 222.90338 3337.1339 201.89566 3337.8604 180.91895 3344.8277 160.44359 3353.6885 134.40273 3371.8785 119.87365 3399.0523 115.89284 3415.8734 113.42865 3431.492 116.17977 3446.141 124.62628 3451.741 127.85524 3455.5157 132.23094 3455.0609 139.34528 3454.7425 144.32122 3455.1834 149.34247 3454.95 154.32778 3454.5755 162.3307 3450.0675 164.52236 3443.4476 160.15422 3436.3687 155.48299 3429.6627 150.44432 3420.8643 148.72643 3405.509 145.72832 3390.6805 151.58068 3385.5194 167.3539 3378.8409 187.76323 3378.0909 208.43163 3387.809 228.42452 3392.4393 237.94908 3400.612 242.08925 3410.7955 243.00702 3424.687 244.25896 3435.5052 237.4741 3445.8668 229.58824 3451.5042 225.29764 3454.4066 226.0734 3454.8848 232.96852 3455.4395 240.96558 3455.9234 249.19116 3454.5819 256.9986 3453.9439 260.71055 3449.598 264.7454 3445.911 266.81379 3425.484 278.27317 3403.8919 280.05693 3381.1685 272.9505Z" fill="#0865a2"/>
<path transform="matrix(.14653532,0,0,.14652659,28.5,350.93876)" d="M2280 866.1007C2281.1072 849.4044 2283.5194 833.64407 2293.4202 819.94058 2300.8585 809.6456 2310.6827 803.43978 2323.0245 801.0198 2340.3074 797.631 2355.2742 802.0332 2367.9146 814.3588 2369.1629 815.57577 2370.792 816.4018 2373 817.9335 2373 815.6097 2373 814.03878 2373 812.4679 2373 791.1495 2373.1307 769.82968 2372.893 748.5139 2372.8436 744.08419 2374.6717 741.80368 2378.54 741.3481 2382.4656 740.88589 2386.5303 740.88577 2390.456 741.34689 2394.3245 741.8012 2396.1126 744.084 2396.1016 748.5087 2395.951 808.7995 2395.9459 869.0908 2396.1136 929.38156 2396.1258 933.73928 2394.355 935.5085 2390.646 935.8698 2387.5133 936.17507 2384.2845 936.24136 2381.1749 935.83267 2377.8895 935.4009 2375.466 933.9908 2375.8975 929.686 2376.3546 925.1238 2376 920.4802 2376 915.1127 2370.9805 919.5487 2366.7447 923.6394 2362.1566 927.28707 2342.3126 943.0636 2311.5833 941.94027 2294.719 922.209 2287.4449 913.69796 2283.7647 903.5042 2282.1343 892.6977 2280.8348 884.0824 2280.669 875.296 2280 866.1007M2368.5462 898.96157C2372.1336 896.183 2373.2047 892.56478 2373.087 888.0485 2372.8138 877.57168 2372.2537 867.0141 2373.209 856.61788 2374.1746 846.1055 2370.6409 838.4242 2362.6595 832.11807 2355.419 826.39749 2348.2552 820.4952 2338.4935 820.03909 2322.7889 819.3054 2313.4139 827.3716 2308.144 842.42648 2301.862 860.37319 2302.2115 878.80838 2308.1678 896.7286 2315.5557 918.95529 2335.1082 922.78256 2351.4674 913.52529 2357.6568 910.0229 2362.5455 904.2213 2368.5462 898.96157Z" fill="#0865a2"/>
<path transform="matrix(.14653532,0,0,.14652659,28.5,350.93876)" d="M1700 264.72785C1700 196.98284 1700.0878 129.70665 1699.9169 62.431127 1699.8871 50.72396 1701.0357 50.673078 1712.7407 49.225957 1719.6915 48.366605 1726.9352 49.423448 1734.0016 50.09656 1739.3644 50.607385 1740.9922 52.869039 1740.993 58.348287 1741.0033 127.45602 1740.9638 196.56381 1741.0886 265.67134 1741.0962 269.82734 1739.5198 272.40235 1735.7609 272.5262 1725.6032 272.86097 1715.42 272.87083 1705.2622 272.5397 1701.0924 272.40379 1699.3251 269.39414 1700 264.72785Z" fill="#0865a2"/>
<path transform="matrix(.14653532,0,0,.14652659,28.5,350.93876)" d="M2958 208C2958 227.49991 2957.8682 246.50142 2958.0985 265.49855 2958.1517 269.8924 2956.4083 272.4959 2952.445 272.6465 2942.5933 273.0208 2932.7093 273.1174 2922.8607 272.74046 2918.4837 272.57295 2916.8785 269.55076 2916.89 264.82475 2917.0513 197.32547 2917.0833 129.82547 2916.92 62.3262 2916.892 50.741247 2918.044 50.70693 2929.3675 49.247159 2936.4774 48.330568 2943.906 49.413759 2951.1429 50.107118 2956.4337 50.614046 2957.993 52.91357 2957.9942 58.500669 2958.0037 108.167118 2958 157.83356 2958 208Z" fill="#0865a2"/>
<path transform="matrix(.14653532,0,0,.14652659,28.5,350.93876)" d="M3613 220C3613 167.16692 3613.1075 114.833438 3612.9173 62.50104 3612.8746 50.737733 3613.9656 50.694688 3625.6903 49.228555 3632.6444 48.358934 3639.8963 49.423658 3646.969 50.095273 3652.3643 50.607583 3653.9925 52.851305 3653.9935 58.32594 3654.0037 127.49228 3653.974 196.65865 3654.068 265.82487 3654.0736 269.66505 3652.7264 271.7098 3649.0587 272.48255 3638.577 274.69105 3628.1395 274.84355 3617.6588 272.34455 3614.0775 271.49064 3612.9146 269.5562 3612.945 265.9993 3613.0753 250.83383 3613 235.6666 3613 220Z" fill="#0865a2"/>
<path transform="matrix(.14653532,0,0,.14652659,28.5,350.93876)" d="M3536.5819 935.9536C3531.9234 934.90206 3530.8763 932.3106 3530.888 927.99368 3531.0533 867.8359 3530.999 807.6775 3531.0015 747.5193 3531.0018 741.916 3532.588 740.10067 3538.1229 740.0314 3554.4498 739.82699 3554.2139 739.4637 3554.0545 755.0883 3553.837 776.4004 3554 797.7164 3554 819.19326 3560.0445 814.9125 3565.7032 810.55966 3571.6929 806.72409 3595.3472 791.5772 3632.7044 801.67129 3637.982 834.288 3638.9 839.95999 3639.8634 845.70498 3639.91 851.4235 3640.1177 876.9183 3640.0037 902.41567 3639.9974 927.9121 3639.9959 934.0367 3638.177 935.9037 3632.1207 935.99649 3616.0108 936.2433 3616.8634 935.73086 3616.9603 921.15499 3617.111 898.49246 3617.1409 875.8269 3616.9224 853.16549 3616.8477 845.4287 3614.9876 838.0664 3611.1414 831.0656 3605.0604 819.99679 3590.3126 817.9959 3580.8248 821.63467 3569.8443 825.8459 3562.7608 834.84677 3554.9149 842.85507 3553.9046 843.88589 3554.0384 846.26486 3554.035 848.0201 3553.9847 874.6829 3554.004 901.3459 3553.9967 928.0088 3553.9949 934.0482 3552.1287 935.91738 3546.024 935.9921 3543.025 936.0288 3540.025 935.98837 3536.5819 935.9536Z" fill="#0865a2"/>
<path transform="matrix(.14653532,0,0,.14652659,28.5,350.93876)" d="M1785 935C1766.0077 935 1747.5153 935.0075 1729.023 934.9964 1721.1709 934.9917 1718.0043 931.8171 1718.0033 923.94137 1717.9971 870.96328 1717.9967 817.9851 1718.0036 765.007 1718.0045 757.1628 1721.1849 754.006 1729.0746 754.0033 1754.8972 753.99459 1780.72 753.99996 1806.5426 754 1816.5845 754 1819.6489 757.59127 1817.9197 767.54879 1817.2089 771.64236 1815.5645 774.19766 1810.4271 774.12399 1789.6068 773.82528 1768.7796 774 1747.9548 774.00009 1746.1663 774.00009 1744.3776 774 1742.2976 774 1742.2976 793.09756 1742.2976 811.6753 1742.2976 831 1744.1216 831 1745.8803 830.99996 1747.6389 831 1765.2984 831.0001 1782.9577 830.9891 1800.6171 831.00729 1805.7793 831.0125 1807.7752 832.9502 1807.9877 838.0813 1808.0497 839.5782 1808.035 841.0808 1807.9916 842.5789 1807.8335 848.0211 1805.8546 849.9893 1800.4573 849.9941 1782.9645 850.00949 1765.4717 849.99996 1747.9789 850 1746.1881 850 1744.3973 850 1742.3062 850 1742.3062 871.7463 1742.3062 892.99 1742.3062 915 1744.0996 915 1745.8556 915 1747.6116 915 1768.7695 915 1789.9274 914.9943 1811.0853 915.0036 1817.1074 915.0062 1818.9161 916.8589 1818.9955 923.04879 1819.0189 924.881 1819.1549 926.7315 1818.957 928.5428 1818.5097 932.63827 1816.7352 935.17526 1811.9877 935.0606 1803.1631 934.8474 1794.3297 934.9998 1785 935Z" fill="#0865a2"/>
<path transform="matrix(.14653532,0,0,.14652659,28.5,350.93876)" d="M1594.0805 935C1591.9277 934.9995 1590.261 935.03158 1588.5958 934.99288 1582.6358 934.85427 1579.0287 931.42398 1579.0244 925.5123 1578.9854 871.5329 1578.9868 817.5534 1579.0221 763.574 1579.026 757.62747 1582.5912 754.0357 1588.5093 754.0247 1616.4987 753.97299 1644.4879 754.0246 1672.4772 753.9694 1675.5775 753.9633 1677.7451 754.8963 1678.0813 758.1961 1678.4288 761.6064 1678.9893 765.08798 1678.636 768.4523 1678.2291 772.3264 1675.9213 774.1572 1671.49 774.1063 1650.6674 773.867 1629.8405 773.99996 1609.015 774 1607.221 774 1605.4269 774 1603.3189 774 1603.3189 793.0547 1603.3189 811.6331 1603.3189 831 1605.0748 831 1606.8279 831 1608.5809 831 1626.0742 831 1643.5676 830.99368 1661.0609 831.0035 1667.1028 831.00686 1668.9122 832.84939 1668.9961 839.0247 1669.0165 840.5238 1669.1353 842.04 1668.9631 843.5197 1668.4889 847.5981 1666.7667 850.1039 1662.0119 850.0618 1644.3534 849.9055 1626.6925 849.9999 1609.0326 850.00009 1607.2369 850.00009 1605.4413 850 1603.3252 850 1603.3252 871.7084 1603.3252 892.95278 1603.3252 914.99996 1605.0582 914.99996 1606.8093 914.9999 1608.5603 914.9999 1629.7189 914.99996 1650.8776 914.99478 1672.0361 915.00338 1678.08 915.00588 1679.9075 916.85659 1679.9968 923.00009 1680.0161 924.3326 1680.016 925.6659 1679.9967 926.9984 1679.9076 933.14407 1678.0814 934.9949 1672.0377 934.9967 1646.2142 935.0045 1620.3906 935 1594.0805 935Z" fill="#0865a2"/>
<path transform="matrix(.14653532,0,0,.14652659,28.5,350.93876)" d="M1441 866C1441 832.01388 1440.9954 798.52767 1441.0034 765.0415 1441.0054 757.177 1444.1764 754.0062 1452.04 754.0034 1478.0293 753.9942 1504.0186 753.99996 1530.0078 754 1539.3948 754 1543.1528 759.08877 1540.7534 768.4934 1539.7815 772.3026 1537.8855 774.1577 1533.4623 774.10757 1512.307 773.8675 1491.1477 773.9956 1469.9898 774.01016 1468.5276 774.01119 1467.0654 774.15298 1465.3098 774.2446 1465.3098 793.07266 1465.3098 811.6505 1465.3098 831 1467.0939 831 1468.8491 830.99996 1470.6044 830.99996 1488.2638 831 1505.9231 830.98947 1523.5825 831.0069 1528.7799 831.0121 1530.7736 832.9202 1530.9846 838.04696 1531.0598 839.8763 1531.1548 841.7293 1530.9569 843.54049 1530.5095 847.6341 1528.7351 850.1047 1523.991 850.0623 1506.333 849.9047 1488.6729 849.9999 1471.0134 850.00009 1469.2196 850.00009 1467.4257 850 1465.3184 850 1465.3184 871.72146 1465.3184 892.9653 1465.3184 915 1467.0718 915 1468.8245 915 1470.577 915 1491.735 915 1512.8928 914.99459 1534.0508 915.00338 1540.0956 915.00588 1541.9124 916.8495 1541.9953 923.0142 1542.0199 924.84646 1542.1565 926.6972 1541.9573 928.5082 1541.5094 932.58169 1539.7831 935.0815 1535.0234 935.06039 1507.0355 934.93637 1479.0468 935.0168 1451.0584 934.9868 1444.4965 934.9798 1441.0264 931.5194 1441.0138 924.97598 1440.9761 905.484 1441 885.992 1441 866Z" fill="#0865a2"/>
<path transform="matrix(.14653532,0,0,.14652659,28.5,350.93876)" d="M1987.7637 901.51089C1994.7495 884.3515 1990.2716 870.76376 1974.5382 862.29849 1962.6593 855.90719 1950.4011 850.2252 1938.3881 844.07839 1926.7925 838.1451 1917.3171 829.8528 1912.3338 817.56808 1904.3353 797.8504 1909.9187 770.38156 1931.8574 759.57559 1955.3217 748.0182 1978.3195 749.793 2000.8213 762.1103 2002.9773 763.2905 2005.046 766.1124 2005.541 768.506 2006.3307 772.3257 2006.2352 776.49588 2005.654 780.3896 2004.9082 785.3883 2003.0684 785.934 1998.4043 783.7611 1991.132 780.3729 1984.0335 776.37399 1976.438 773.9726 1964.9406 770.3374 1953.3701 770.553 1942.8076 777.59786 1931.7245 784.9902 1929.4791 802.9928 1938.4971 812.9583 1944.6766 819.78738 1952.4209 824.2851 1960.7661 828.14437 1975.0546 834.75216 1990.0819 840.2099 2001.8134 851.3417 2015.4852 864.31448 2018.8392 880.3535 2014.3812 898.0374 2009.273 918.3007 1995.6419 930.13919 1975.6095 935.2127 1952.7699 940.99716 1931.2167 938.09536 1911.0436 925.9493 1904.7103 922.1361 1902.563 909.76168 1906.7258 903.6565 1909.1077 900.16329 1911.6206 902.4252 1913.9979 903.58248 1920.917 906.9507 1927.5198 911.20559 1934.7396 913.666 1946.9314 917.82077 1959.4518 918.7459 1972.0046 914.1496 1978.6569 911.7139 1983.7592 907.68276 1987.7637 901.51089Z" fill="#0865a2"/>
<path transform="matrix(.14653532,0,0,.14652659,28.5,350.93876)" d="M2495.904 938C2483.7789 938.2843 2472.4224 937.05508 2461.611 932.27218 2444.2852 924.6074 2434.8736 910.62698 2431.2115 892.7903 2427.2728 873.60678 2427.6197 854.397 2434.9747 835.85806 2442.849 816.0091 2457.4029 804.3814 2478.5406 800.9748 2490.8409 798.9923 2502.758 799.7237 2514.3729 804.6942 2530.2906 811.506 2539.2806 823.9602 2542.7552 840.3106 2544.4884 848.4654 2544.5916 857.0169 2544.888 865.40817 2545.0706 870.58578 2540.67 873.98519 2534.8206 873.9903 2509.8255 874.0124 2484.8304 873.9999 2459.8353 874 2457.846 874 2455.857 874 2453.2459 874 2452.3846 882.38528 2453.956 890.1407 2456.9329 897.6539 2462.7984 912.45748 2474.9766 917.8749 2489.6937 918.94387 2503.973 919.98098 2517.5079 916.6946 2530.4874 910.8566 2537.9649 907.4934 2539.9703 908.7987 2540 916.96939 2540.0338 926.20767 2538.8074 928.5977 2529.5159 931.04086 2518.6173 933.90658 2507.443 935.72647 2495.904 938M2455.4378 843.0854C2454.473 847.47659 2453.508 851.8677 2452.449 856.6878 2476.1749 856.6878 2498.8507 856.6878 2521.48 856.6878 2524.3074 837.44216 2513.9129 822.133 2494.4737 818.43057 2477.886 815.27127 2461.5714 824.0671 2455.4378 843.0854Z" fill="#0865a2"/>
<path transform="matrix(.14653532,0,0,.14652659,28.5,350.93876)" d="M3161.9722 938C3148.8397 937.5714 3137.035 934.93258 3128.2659 924.7831 3118.8548 913.8901 3116.945 901.3744 3120.6407 887.7863 3125.2005 871.0208 3138.2454 863.8662 3153.5323 860.22299 3162.1026 858.1804 3171.1009 857.756 3179.9427 857.0882 3186.0386 856.62789 3192.1973 857 3199.8626 857 3198.8009 848.4958 3198.898 840.2544 3196.5618 832.7728 3193.4195 822.7084 3184.3233 819.75869 3174.6263 819.0247 3159.89 817.90927 3146.706 822.6522 3134.3477 830.1641 3129.0543 833.3819 3125.7288 831.5851 3124.9407 825.3883 3123.863 816.9147 3127.9942 812.25729 3135.2113 808.8764 3152.2745 800.88296 3169.9637 797.9026 3188.5736 801.3233 3197.298 802.9269 3205.1697 806.2131 3211.4583 812.87539 3217.148 818.9035 3220.6612 826.1342 3220.8385 834.0994 3221.5555 866.35128 3221.7095 898.61648 3221.846 930.8776 3221.8519 932.3131 3219.843 934.73757 3218.443 935.0102 3214.617 935.7554 3210.5916 935.9435 3206.689 935.6872 3203.404 935.47146 3201.4105 933.58248 3201.925 929.6844 3202.307 926.79177 3202.0003 923.80819 3202.0003 919.8586 3190.2955 930.63919 3177.9906 938.0238 3161.9722 938M3162.556 875.9662C3160.9666 876.3527 3159.3216 876.5876 3157.797 877.15029 3147.1929 881.06497 3141.1146 891.6507 3143.0626 902.6839 3144.8348 912.7188 3154.1192 919.78598 3165.2139 920.0528 3176.2464 920.3181 3184.7869 915.2568 3192.3687 908.0425 3194.8258 905.7045 3198.394 903.0006 3198.669 900.19137 3199.502 891.683 3198.9705 883.0411 3198.9705 873.1397 3186.644 874.0772 3175.0174 874.9615 3162.556 875.9662Z" fill="#0865a2"/>
<path transform="matrix(.14653532,0,0,.14652659,28.5,350.93876)" d="M3305.416 825.27C3303.301 826.9045 3301.4095 828.24838 3299.7218 829.81198 3285.9884 842.53598 3286 842.5487 3286 861.2324 3286 883.5647 3286.006 905.89706 3285.9957 928.2293 3285.993 933.9767 3284.0943 936.0243 3278.3028 935.9455 3274.2076 935.88986 3270.0535 935.65066 3266.0662 934.8185 3264.8106 934.5565 3263.1358 932.1107 3263.1304 930.6588 3262.9725 889.1613 3263.0599 847.66299 3262.9166 806.16537 3262.9019 801.9368 3265.8148 801.5971 3268.328 801.1938 3271.5782 800.6723 3275.0157 800.70846 3278.2928 801.1284 3281.8802 801.58828 3284.3162 803.4854 3284.0535 807.7772 3283.8026 811.87686 3283.9996 816.0038 3283.9996 819.7541 3291.8687 814.5425 3299.1497 808.4748 3307.4305 804.4793 3328.8468 794.14596 3357.0623 800.83139 3366.719 823.9719 3369.93 831.666 3371.5687 840.5074 3371.7684 848.87576 3372.397 875.1928 3372.0035 901.5344 3371.9976 927.8665 3371.996 934.0331 3370.2003 935.9029 3364.1649 935.99539 3348.066 936.2418 3348.8582 935.77377 3348.9588 921.19668 3349.1153 898.5321 3349.1463 875.86428 3348.919 853.20089 3348.8416 845.47006 3346.9793 838.1149 3343.1595 831.09329 3336.8785 819.54769 3320.908 817.74288 3311.494 822.2244 3309.559 823.1454 3307.653 824.1275 3305.416 825.27Z" fill="#0865a2"/>
<path transform="matrix(.14653532,0,0,.14652659,28.5,350.93876)" d="M2578 882C2578 856.8439 2578.104 832.1868 2577.8956 807.5324 2577.8616 803.51889 2579.4078 801.5473 2582.9512 801.1993 2586.578 800.8431 2590.3326 800.67056 2593.9053 801.22677 2596.9217 801.69619 2599.2769 803.53189 2599.0538 807.3995 2598.809 811.6426 2598.998 815.9107 2598.998 819.84738 2606.5274 814.78469 2613.4515 809.14498 2621.2125 805.1164 2637.0787 796.88058 2653.321 797.91439 2668.233 807.3349 2677.3873 813.1183 2683.0345 822.3569 2684.8834 833.31686 2685.894 839.3061 2686.8533 845.39028 2686.906 851.4397 2687.1282 876.92697 2687.0035 902.4172 2686.9974 927.9063 2686.9957 934.03579 2685.181 935.90347 2679.1302 935.9961 2663.029 936.24258 2663.8619 935.74258 2663.96 921.1724 2664.1126 898.5164 2664.1483 875.8571 2663.918 853.2025 2663.8394 845.47677 2661.9835 838.1236 2658.1656 831.1017 2652.0413 819.83779 2636.6873 818.0771 2627.4254 821.809 2616.663 826.14547 2609.7288 834.9733 2601.9544 842.80667 2600.9385 843.83029 2601.0404 846.2053 2601.0367 847.9552 2600.9842 874.61038 2601.0035 901.26577 2600.9974 927.921 2600.9959 934.0362 2599.1724 935.90548 2593.1156 935.992 2590.284 936.03256 2587.4364 936.17807 2584.6229 935.94839 2580.464 935.60897 2577.7689 934.22628 2577.8814 928.97787 2578.2132 913.4915 2578 897.99349 2578 882Z" fill="#0865a2"/>
<path transform="matrix(.14653532,0,0,.14652659,28.5,350.93876)" d="M2163 815.0414C2163 838.6873 2162.7244 861.8448 2163.145 884.98959 2163.299 893.45016 2164.7567 901.7607 2170.3114 909.09689 2176.8675 917.7562 2189.5938 919.81069 2198.7308 916.1527 2208.8685 912.0942 2215.623 904.08828 2222.6402 896.4245 2224.195 894.7263 2224.8887 891.66079 2224.9027 889.2186 2225.0577 862.2361 2224.9974 835.25247 2225.0025 808.26907 2225.0035 802.99 2226.601 801.3136 2231.8675 801.0068 2232.1995 800.98739 2232.5335 801.0051 2232.8668 801.0003 2248.9456 800.7665 2248.0948 801.2388 2248.044 815.8191 2247.9134 853.4621 2248.0023 891.1059 2247.9979 928.7494 2247.997 934.0088 2246.3853 935.72647 2241.114 935.979 2238.9537 936.08248 2236.7835 936.03738 2234.6192 935.9913 2228.866 935.86868 2227.0267 933.9615 2227.0003 928.15768 2226.9842 924.6603 2226.9805 921.1627 2226.9398 917.66567 2226.9366 917.3953 2226.6849 917.1279 2226.626 917.0121 2220.8179 921.4763 2215.0452 925.99996 2209.182 930.4024 2194.7208 941.2609 2167.5843 940.48556 2154.6402 927.4794 2146.5386 919.33859 2141.5784 909.7315 2141.2279 898.80776 2140.2464 868.2374 2140.4273 837.6312 2139.899 807.04348 2139.821 802.5354 2142.7257 802.0355 2145.6143 801.0993 2146.6737 800.75607 2147.9288 801.0247 2149.094 800.9986 2163.701 800.6725 2163.3709 802.0328 2163 815.0414Z" fill="#0865a2"/>
<path transform="matrix(.14653532,0,0,.14652659,28.5,350.93876)" d="M3282 140.00148C3282 135.00193 3282.2686 130.48133 3281.925 126.00771 3281.5709 121.39215 3284.1544 118.54064 3287.8695 118.3219 3297.5418 117.75237 3307.2879 117.741809 3316.963 118.269489 3320.633 118.46966 3323.1007 121.165088 3323.0865 125.82529 3322.944 172.65796 3322.98 219.49127 3323.04 266.32429 3323.0445 269.68794 3321.877 271.44407 3318.4908 272.25746 3307.8592 274.8113 3297.305 274.7455 3286.6588 272.35084 3282.6846 271.45695 3281.9456 269.0904 3281.9522 265.5003 3282.0274 223.834 3282 182.16751 3282 140.00148Z" fill="#0865a2"/>
<path transform="matrix(.14653532,0,0,.14652659,28.5,350.93876)" d="M1924 203C1924 178.50019 1924.1768 154.49849 1923.9243 130.50133 1923.801 118.77969 1924.8908 118.746 1936.1951 117.26071 1943.4623 116.30587 1951.0715 117.38717 1958.4624 118.17036 1962.4564 118.593578 1965.091 120.912288 1965.0773 125.8265 1964.947 172.65912 1964.9797 219.4923 1965.04 266.3252 1965.0444 269.6894 1963.8753 271.44493 1960.4898 272.25779 1949.8583 274.81056 1939.2984 274.77445 1928.6603 272.3393 1925.0685 271.5171 1923.9269 269.55497 1923.9458 265.99925 1924.0568 245.16667 1924.0001 224.33318 1924 203Z" fill="#0865a2"/>
<path transform="matrix(.14653532,0,0,.14652659,28.5,350.93876)" d="M2321 470.00047C2321 509.83338 2320.9693 549.1665 2321.018 588.4995 2321.0333 600.72128 2322.172 599.6967 2309.12 601.6951 2301.584 602.8489 2293.6016 601.4878 2285.8656 600.7677 2281.854 600.3943 2279.851 598.1054 2279.8739 593.32467 2280.0865 548.326 2280.1185 503.32536 2279.9185 458.32655 2279.867 446.74085 2281.044 446.70683 2292.3675 445.24717 2299.4776 444.33064 2306.9075 445.40614 2314.141 446.12223 2318.421 446.54594 2321.3634 448.85688 2321.0655 454.00434 2320.7677 459.1538 2321 464.33393 2321 470.00047Z" fill="#0865a2"/>
<path transform="matrix(.14653532,0,0,.14652659,28.5,350.93876)" d="M1754.9548 600.08169C1744.1322 603.08737 1733.6635 602.56838 1723.1885 600.6055 1719.384 599.89279 1717.9009 597.7302 1717.9131 593.61849 1718.0508 547.16 1717.9943 500.70103 1718.0082 454.24217 1718.0098 448.76579 1719.6057 446.40449 1725.102 446.1324 1734.1145 445.6863 1743.182 445.6981 1752.193 446.1621 1756.4277 446.3802 1759.0982 448.909 1759.0827 454.03938 1758.9412 500.6643 1758.9887 547.28988 1759.0261 593.9152 1759.0285 596.7919 1758.7374 599.26589 1754.9548 600.08169Z" fill="#0865a2"/>
<path transform="matrix(.14653532,0,0,.14652659,28.5,350.93876)" d="M2074 867C2074 876.49459 2073.731 885.50057 2074.1124 894.47897 2074.3052 899.0107 2075.153 903.67147 2076.6226 907.9592 2079.6063 916.664 2089.9 918.16476 2096.9737 916.4773 2099.6766 915.83248 2102.4207 915.07266 2104.9078 913.8721 2109.1954 911.8026 2110.4068 914.5158 2110.8668 917.6545 2111.2969 920.588 2111.184 923.6596 2110.8836 926.62716 2110.48 930.6084 2108.135 933.1912 2104.2327 934.3218 2090.1063 938.4146 2076.3153 938.8901 2063.5379 930.18087 2055.8397 924.9338 2052.5052 916.6938 2052.2139 908.1553 2051.3016 881.41647 2051.3319 854.6454 2051.0035 827.8868 2050.9774 825.7659 2051 823.6444 2051 820.9985 2045.4927 820.9985 2040.5293 820.7915 2035.5932 821.06826 2032.0569 821.2665 2029.9332 819.4197 2029.4237 816.56967 2028.8242 813.21456 2028.6742 809.4554 2029.6404 806.2689 2030.1952 804.43966 2033.2329 802.4528 2035.3555 802.1929 2040.2564 801.5928 2045.2808 802.00228 2051 802.00228 2051 793.3967 2050.9979 785.13906 2051.0008 776.8814 2051.0037 769.44937 2052.4649 768.1103 2060.0782 767.9815 2074.9844 767.72958 2074.263 769.05667 2074.0208 782.03268 2073.9005 788.4849 2074 794.9413 2074 802 2083.9339 802 2093.3739 801.9932 2102.814 802.0023 2109.5516 802.0088 2111.012 803.7615 2111.0003 811.7736 2110.9893 819.2517 2109.444 820.99179 2102.7667 820.9978 2093.4522 821.0062 2084.138 821 2074 821 2074 836.3537 2074 851.4268 2074 867Z" fill="#0865a2"/>
<path transform="matrix(.14653532,0,0,.14652659,28.5,350.93876)" d="M2753.9783 900.9334C2756.8077 915.03536 2765.5777 920.04818 2778.8646 915.5835 2789.7794 911.91598 2790.1795 912.2742 2790.0296 924.2206 2789.9669 929.216 2788.235 932.9064 2783.1588 934.3599 2769.0306 938.40536 2755.2095 938.90829 2742.4613 930.12008 2734.8067 924.84329 2731.8983 916.6379 2731.1658 908.0444 2730.1678 896.33059 2730.156 884.5193 2730.0418 872.7467 2729.8773 855.77 2730 838.7905 2730 820.9994 2724.8055 820.9994 2719.875 820.8227 2714.9632 821.0498 2710.183 821.27078 2708.4793 818.5562 2708.0457 814.4918 2707.8348 812.5151 2707.8353 810.47866 2708.0457 808.50186 2708.4788 804.43307 2710.194 801.72488 2714.9696 801.95089 2719.7552 802.17739 2724.5599 802.0006 2730 802.0006 2730 792.9465 2729.988 784.34188 2730.004 775.7373 2730.0145 770.0174 2731.9183 768.0944 2737.7274 768.00759 2753.7535 767.76779 2753.315 768.0943 2753.0208 782.6869 2752.8968 788.83877 2753 794.99526 2753 802 2756.6602 802 2760.0736 801.9999 2763.4866 802.0001 2770.151 802.00057 2776.8333 801.7282 2783.4686 802.1686 2785.4505 802.3002 2788.5997 804.1336 2788.9515 805.69656 2789.783 809.392 2789.648 813.44406 2789.1546 817.2549 2788.757 820.325 2786.1282 821.0917 2783.092 821.0498 2773.2943 820.9144 2763.4932 820.9993 2753.2869 820.9993 2753.1768 822.9951 2753.0128 824.6002 2753.0115 826.2055 2752.9947 848.86398 2752.9747 871.5224 2753.0418 894.18069 2753.048 896.2873 2753.6407 898.3922 2753.9783 900.9334Z" fill="#0865a2"/>
<path transform="matrix(.14653532,0,0,.14652659,28.5,350.93876)" d="M3471.0216 800.9778C3481.2164 802.1066 3489.8343 805.9389 3497.3077 812.19979 3501.11 815.38497 3502.5738 827.32577 3500.0579 831.8025 3497.7293 835.94546 3495.0882 833.61416 3492.632 832.0569 3487.6453 828.8951 3483.0718 824.8354 3477.7313 822.5273 3465.2498 817.1334 3452.821 816.775 3441.453 825.82797 3434.5455 831.32876 3430.9737 839.0213 3429.2349 847.191 3426.05 862.15536 3426.0096 877.16787 3429.829 892.2649 3436.1375 917.2017 3459.2586 923.05398 3477.6859 914.5248 3483.735 911.72476 3489.1593 907.51419 3494.71 903.71578 3498.6007 901.0532 3499.8787 901.29696 3501.31 905.73147 3504.9134 916.8955 3500.4298 925.85806 3488.1224 931.3552 3478.4237 935.68728 3468.3165 938.3141 3457.5308 938.0315 3429.544 937.2981 3412.9205 923.262 3406.204 897.44729 3400.793 876.64816 3401.2459 855.6321 3408.9156 835.21237 3416.248 815.6896 3430.0067 803.7184 3450.9498 801.10366 3457.3978 800.2985 3464.0299 800.9685 3471.0216 800.9778Z" fill="#0865a2"/>
<path transform="matrix(.14653532,0,0,.14652659,28.5,350.93876)" d="M1371 838C1371 812.007 1371.071 786.5136 1370.9309 761.02139 1370.9074 756.7192 1371.8029 753.87167 1376.6669 753.6959 1380.7828 753.54727 1384.9401 752.8501 1388.9968 753.2435 1392.8948 753.6216 1395.2116 755.6954 1395.1264 760.5376 1394.8095 778.5271 1395 796.5256 1395 814.5206 1395 852.5102 1394.923 890.5002 1395.1035 928.4889 1395.1246 932.9174 1393.3241 935.2299 1389.4542 935.6502 1385.1897 936.11337 1380.7964 936.1135 1376.5325 935.64596 1372.6622 935.22158 1370.8646 932.90109 1370.8945 928.4747 1371.0968 898.48428 1371.0001 868.4918 1371 838Z" fill="#0865a2"/>
<path transform="matrix(.14653532,0,0,.14652659,28.5,350.93876)" d="M3058 890C3058 903.3233 3057.9012 916.1479 3058.0672 928.96908 3058.1104 932.28427 3057.0535 935.03219 3053.9532 935.3438 3048.9339 935.8482 3043.7952 935.60867 3038.7469 935.1954 3036.015 934.9718 3034.9124 933.0245 3034.9212 929.9416 3035.0394 888.974 3035.0596 848.0056 3034.8995 807.03829 3034.885 803.3654 3036.3895 801.6828 3039.4674 801.35806 3043.2498 800.95889 3047.1575 800.70809 3050.8939 801.2308 3053.9014 801.6515 3056.2508 803.5127 3056.0562 807.3827 3055.8143 812.186 3055.998 817.01077 3055.998 822.2316 3060.4227 817.55319 3064.384 813.00009 3068.726 808.8444 3079.7327 798.3095 3091.498 798.31167 3103.9908 802.5119 3104.6068 802.71908 3105.2276 803.02407 3105.7349 803.4243 3108.5909 805.6777 3109.241 822.5386 3106.376 824.6857 3105.4498 825.38009 3103.554 825.5008 3102.4056 825.0712 3082.9622 817.80087 3078.2757 823.76248 3066.4105 836.28616 3064.3975 838.4108 3062.5352 840.88009 3061.3367 843.52279 3059.8299 846.8455 3058.2664 850.4835 3058.1488 854.0327 3057.7564 865.84378 3058 877.6759 3058 890Z" fill="#0865a2"/>
<path transform="matrix(.14653532,0,0,.14652659,28.5,350.93876)" d="M79.450458 888.8992C79.33092 881.2531 79.575099 873.66116 80.056 866.08419 80.31358 862.0259 81.85152 859.68936 86.85181 859.8631 98.97062 860.2841 111.115657 860.1254 123.2468 859.95889 132.33496 859.8341 141.4284 859.4999 150.49883 858.9298 155.01625 858.64596 156.31143 860.39889 156.06087 864.6739 155.529 873.7474 155.33612 882.8407 155.00806 892.3824 140.2249 891.91946 125.44311 890.9034 110.64923 890.1137 100.41234 889.56729 90.158779 889.3332 79.450458 888.8992Z" fill="#015f9c"/>
<path transform="matrix(.14653532,0,0,.14652659,28.5,350.93876)" d="M1949.6669 53.002634C1956.7654 54.25656 1963.8849 54.908029 1966.327 62.850755 1969.2372 72.315708 1969.4747 81.8643 1963.7098 90.29954 1960.3175 95.26305 1954.0643 95.60577 1948.546 95.87777 1943.6434 96.11941 1938.6771 95.47202 1933.7634 94.974918 1927.4179 94.33293 1923.0343 90.506298 1922.2512 84.50466 1921.3952 77.94515 1921.4102 71.04458 1922.4669 64.522998 1923.6649 57.12977 1930.355 53.372938 1940.2222 53.019739 1943.214 52.912645 1946.2128 53.001684 1949.6669 53.002634Z" fill="#0865a2"/>
<path transform="matrix(.14653532,0,0,.14652659,28.5,350.93876)" d="M2288.476 422.9549C2276.3843 419.42216 2275.8067 406.63206 2277.4117 396.58879 2279.162 385.6335 2283.567 382.04267 2294.9696 381.1502 2300.3416 380.72978 2305.8653 381.35807 2311.2403 382.09516 2318.0096 383.0234 2321.841 387.0744 2323.2037 394.00364 2324.5816 401.01 2324.364 407.74794 2321.9825 414.40177 2319.0504 422.59394 2311.6634 423.34828 2304.677 423.85585 2299.463 424.23469 2294.1549 423.3223 2288.476 422.9549Z" fill="#0865a2"/>
<path transform="matrix(.14653532,0,0,.14652659,28.5,350.93876)" d="M1749.6315 382.0494C1759.1119 384.31144 1761.4628 390.4657 1761.9594 399.6269 1762.1205 402.5986 1762.2556 405.69447 1761.6286 408.56443 1759.2551 419.42768 1755.2199 423.0343 1743.8821 423.87269 1738.9948 424.2341 1733.9384 423.86643 1729.1008 423.01948 1719.5022 421.33894 1715.8145 417.4809 1715.1505 408.04756 1714.7957 403.0067 1715.2949 397.77928 1716.2572 392.79997 1717.9899 383.83424 1725.4131 381.80525 1732.9389 381.1734 1738.3037 380.723 1743.7866 381.6809 1749.6315 382.0494Z" fill="#0865a2"/>
<path transform="matrix(.14653532,0,0,.14652659,28.5,350.93876)" d="M3325.998 70.32212C3325.939 73.93412 3326.3326 77.1793 3325.7354 80.23061 3323.606 91.113819 3319.7747 94.68899 3308.2435 95.839679 3303.3826 96.32474 3298.388 95.375598 3293.4498 95.19708 3284.5316 94.874698 3280.6094 89.21596 3279.3572 81.39695 3278.6846 77.1981 3278.5836 72.667629 3279.3985 68.51726 3281.5333 57.643835 3285.0047 54.348878 3296.5379 53.23218 3302.5155 52.653387 3308.7554 53.43674 3314.7276 54.468847 3323.0643 55.90963 3324.9627 62.72579 3325.998 70.32212Z" fill="#0865a2"/>
<path transform="matrix(.14653532,0,0,.14652659,28.5,350.93876)" d="M557.62637 490.1228C558.0116 500.8939 558.0116 511.62648 558.0116 522.93417 594.0847 515.3219 628.74948 508.0068 664.14706 500.5371 663.19119 502.54246 662.4107 504.17973 660.9149 505.95115 657.49887 506.71549 654.81466 507.42936 652.095 507.96257 631.86459 511.92887 611.62789 515.8626 591.3917 519.79989 577.59207 522.48489 563.7902 525.159 549.9894 527.838 549.6722 516.182 549.3549 504.5259 549.1 492.42936 551.8552 491.354 554.54818 490.71919 557.62637 490.1228Z" fill="#015f9c"/>
<path transform="matrix(.14653532,0,0,.14652659,28.5,350.93876)" d="M549.65579 527.99966C563.7902 525.159 577.59207 522.48489 591.3917 519.79989 611.62789 515.8626 631.86459 511.92887 652.095 507.96257 654.81466 507.42936 657.49887 506.71549 660.60037 506.1139 661.00076 523.61318 661.0057 541.08389 660.9967 558.55459 660.9941 563.7387 659.24978 565.2772 654.14627 566.0551 640.1895 568.18246 626.28909 570.6777 612.33609 572.83078 600.2625 574.69387 588.1389 576.2305 576.0543 578.02499 570.29446 578.88027 564.5738 579.99917 558.4236 581.07986 555.84579 581.18496 553.6797 581.20889 551.2535 581.5347 545.74349 579.94229 547.55416 575.00747 547.2111 571.5565 546.50808 564.4842 547.1104 557.2907 546.95626 550.1518 546.8717 546.2373 546.31649 542.33419 546.0183 538.42257 545.72427 534.56369 545.8597 530.8208 549.65579 527.99966Z"/>
<path transform="matrix(.14653532,0,0,.14652659,28.5,350.93876)" d="M361 572.97C361.32698 566.23599 361.2106 559.93228 362.10285 553.77468 363.03453 547.34536 367.8513 543.7031 373.55027 544.00106 379.23164 544.29818 384.80476 549.5546 384.9387 555.3467 385.1582 564.83798 385.16728 574.3422 384.9321 583.83279 384.7979 589.2487 379.28947 594.72476 374.38627 594.9993 367.9479 595.35989 363.19346 591.97177 362.06596 585.67208 361.34925 581.66757 361.33134 577.53799 361 572.97Z"/>
<path transform="matrix(.14653532,0,0,.14652659,28.5,350.93876)" d="M429 550.26687C429 559.0418 429.01469 567.35018 428.99555 575.65847 428.9789 582.8926 424.16517 588.01998 417.45414 588 410.7597 587.9801 406.0178 582.84909 406.0039 575.5668 405.98744 566.9261 405.9931 558.2854 406.00227 549.6447 406.0094 542.8895 411.46607 536.9404 417.57783 537.0015 423.65678 537.0623 428.9341 542.97567 429 550.26687Z"/>
<path transform="matrix(.14653532,0,0,.14652659,28.5,350.93876)" d="M291.02128 672C299.4367 672.66708 302.99473 676.3884 302.99928 684.09329 303.0029 690.2419 303.04823 696.391 302.9857 702.539 302.9283 708.17587 299.09696 711.8979 293.39649 712 281.8859 712.2061 279.00007 709.3481 279 697.7426 279 695.9147 279 694.0867 279 692.2587 279 689.59988 278.98893 686.941 279.0021 684.28219 279.03919 676.8012 283.01329 672.5966 291.02128 672Z"/>
<path transform="matrix(.14653532,0,0,.14652659,28.5,350.93876)" d="M341 690.8932C340.66938 694.10256 340.52793 696.8712 339.9711 699.5538 338.55308 706.3849 334.83717 708.6284 326.40687 707.9985 321.7543 707.6508 317.2375 702.97549 317.05607 697.7658 316.831 691.3019 316.8333 684.8184 317.05299 678.3541 317.24165 672.80227 321.94496 668.5785 328.02726 668.0034 333.7271 667.46456 338.93757 671.0146 339.9291 676.76406 340.70143 681.2422 340.6727 685.85848 341 690.8932Z"/>
<path transform="matrix(.14653532,0,0,.14652659,28.5,350.93876)" d="M333.53419 556.01498C339.81257 558.42648 342.3847 562.8112 342.0183 569.1112 341.60816 576.16458 341.56254 583.2461 340.9319 590.2771 340.50166 595.0736 335.62745 597.7733 329.2224 597.0104 325.55784 596.5738 321.12269 591.70657 321.03898 587.4901 320.9004 580.50888 320.83183 573.51748 321.05039 566.5403 321.25736 559.9328 325.93263 556.03158 333.53419 556.01498Z"/>
<path transform="matrix(.14653532,0,0,.14652659,28.5,350.93876)" d="M258.91383 686.81118C258.98838 694.38406 259.0205 701.53097 258.9908 708.67758 258.9702 713.63967 256.28187 717.0454 251.84917 718.5049 247.65746 719.88497 243.1775 719.7051 240.27367 715.61788 239.04299 713.8856 238.19477 711.52517 238.10065 709.40896 237.82033 703.1056 238.33536 696.7589 237.9076 690.4722 237.46202 683.92416 241.01804 681.0302 245.27483 679.3178 249.04532 677.801 254.71082 680.16738 257.70439 684.2305 258.1811 684.87759 258.4695 685.6634 258.91383 686.81118Z"/>
<path transform="matrix(.14653532,0,0,.14652659,28.5,350.93876)" d="M304 593.7277C303.94126 600.1232 299.53834 604.9189 294.08277 604.9937 288.82197 605.06588 284.02799 599.83517 284.00593 593.94 283.98045 587.13088 283.94844 580.3211 284.01515 573.5125 284.07716 567.1799 288.52253 562.89968 294.78007 563.00027 300.458 563.09158 303.98118 567.02566 303.9964 573.3342 304.01243 579.97738 304 586.6204 304 593.7277Z"/>
<path transform="matrix(.14653532,0,0,.14652659,28.5,350.93876)" d="M199.57364 616.0848C199.1916 607.67947 198.59238 599.52896 199.16077 591.46066 199.56508 585.7214 204.30728 582.5981 209.74813 583.002 214.6096 583.3629 219.75507 588.21798 219.94005 593.1475 220.1768 599.45706 220.17874 605.7894 219.93088 612.0982 219.75984 616.4517 215.45784 621.26339 211.7248 621.9801 206.29064 623.0233 202.95479 621.44796 199.57364 616.0848Z"/>
<path transform="matrix(.14653532,0,0,.14652659,28.5,350.93876)" d="M241 591.0271C241.00003 587.8765 240.96808 585.21969 241.00702 582.56387 241.07907 577.6493 245.5773 572.9445 250.10265 573.006 254.54329 573.06637 259.8496 577.7998 259.94743 582.25076 260.1261 590.3821 260.11436 598.5224 259.9524 606.6544 259.86338 611.12606 254.28028 616.226 250.19351 615.97128 245.46857 615.6767 241.02825 610.8632 241.005 605.9654 240.98217 601.15078 241 596.33596 241 591.0271Z"/>
<path transform="matrix(.14653532,0,0,.14652659,28.5,350.93876)" d="M202.65456 719.8667C197.15869 717.2901 194.89893 713.0384 195.04088 707.5583 195.17649 702.3225 195.22373 697.0226 196.10453 691.88717 196.84238 687.5852 202.01366 683.80087 205.36316 684.0699 209.7405 684.4216 214.78238 689.57656 214.95212 694.2915 215.14948 699.7736 215.20636 705.2782 214.94252 710.7547 214.64711 716.8866 210.37146 720.03079 202.65456 719.8667Z"/>
<path transform="matrix(.14653532,0,0,.14652659,28.5,350.93876)" d="M135.14179 633.9752C130.38506 632.1609 128.69461 628.9467 128.93489 624.2279 129.21411 618.7443 128.99423 613.23568 129.00153 607.73788 129.00997 601.3624 131.52593 598.36477 136.79006 597.96707 142.9295 597.5032 146.12622 601.3378 146.83376 607.04159 147.56647 612.9483 147.31099 619.0377 146.90918 625.0083 146.49558 631.154 141.11948 636.0654 135.14179 633.9752Z"/>
<path transform="matrix(.14653532,0,0,.14652659,28.5,350.93876)" d="M156 710.8836C156.53408 705.5605 156.59243 700.5999 157.7413 695.90628 158.80593 691.5566 162.81966 690.2234 166.78643 691.1517 170.81221 692.0939 173.78154 694.9075 173.9516 699.4227 174.15209 704.7458 174.03812 710.0825 173.98902 715.4126 173.94011 720.72006 170.30054 724.7731 165.48412 724.99917 160.62062 725.2274 156.7002 721.7042 156.04366 716.356 155.84215 714.7145 156.00435 713.0283 156 710.8836Z"/>
<path transform="matrix(.14653532,0,0,.14652659,28.5,350.93876)" d="M161 605.1992C161.19852 602.7932 160.99294 600.6994 161.67848 598.95596 163.17014 595.16256 166.03333 592.7615 170.35065 593.0378 174.51599 593.30429 177.8872 595.30966 178.11634 599.7121 178.4787 606.67477 178.79848 613.7622 177.86772 620.6249 177.27886 624.967 171.83435 627.6523 168.23883 626.97708 164.18167 626.215 161.04039 621.975 161.00557 617.15097 160.97794 613.3243 161 609.49728 161 605.1992Z"/>
<path transform="matrix(.14653532,0,0,.14652659,28.5,350.93876)" d="M140.71164 699.22628C141.93706 701.1536 143.6525 702.79739 143.67092 704.45986 143.74135 710.8208 143.5503 717.2171 142.89739 723.5425 142.44196 727.95468 138.64675 729.6989 134.85514 729.80728 130.78441 729.9236 127.1274 725.53329 127.028049 721.2961 126.911518 716.3265 126.98581 711.3521 127.00322 706.3799 127.03341 697.7585 132.75551 694.5962 140.71164 699.22628Z"/>
<path transform="matrix(.14653532,0,0,.14652659,28.5,350.93876)" d="M79.711948 643.2922C77.93808 640.52688 75.41294 638.07089 75.23502 635.45529 74.85008 629.79617 75.37707 624.0188 76.08726 618.3596 76.63547 613.9911 80.54234 611.4533 84.98389 612.0332 89.24134 612.5891 91.80458 615.1261 91.95181 619.4577 92.14308 625.0849 92.14182 630.72799 91.96092 636.35586 91.7588 642.6438 85.809879 646.1263 79.711948 643.2922Z"/>
<path transform="matrix(.14653532,0,0,.14652659,28.5,350.93876)" d="M108.50337 606.19338C115.73194 606.85897 118.58221 609.6505 118.893688 617.1589 119.10219 622.1852 118.621768 627.2943 117.907688 632.2889 117.24059 636.9548 113.73806 639.3449 109.2267 638.9977 104.88623 638.6636 102.08582 635.5298 102.0151 630.7547 101.94634 626.1128 102.38388 621.4286 101.899448 616.83676 101.33816 611.5164 103.90245 608.55526 108.50337 606.19338Z"/>
<path transform="matrix(.14653532,0,0,.14652659,28.5,350.93876)" d="M76.8645 736.3495C73.06219 733.34378 71.700038 729.6937 71.9971 725.32107 72.31807 720.59646 72.144969 715.77688 73.05759 711.1712 73.96008 706.6166 77.857608 704.44949 82.21312 705.0042 86.43021 705.5414 88.95171 708.7377 88.99188 713.7034 89.029499 718.35299 89.01341 723.00308 88.99696 727.65286 88.9695 735.4185 84.60752 738.7115 76.8645 736.3495Z"/>
<path transform="matrix(.14653532,0,0,.14652659,28.5,350.93876)" d="M56.917749 617.00308C64.57876 619.8453 64.99929 620.44387 64.999919 627.9461 65.0003 632.5968 64.953517 637.24819 65.01256 641.8981 65.073978 646.7354 61.629064 649.50888 57.956724 649.6043 55.120496 649.67807 50.581495 647.1499 49.620866 644.6808 46.73885 637.27328 46.822027 629.2254 49.968877 621.8062 50.877485 619.664 54.266084 618.57369 56.917749 617.00308Z"/>
<path transform="matrix(.14653532,0,0,.14652659,28.5,350.93876)" d="M61.899747 712.77786C61.986627 718.68948 62.006505 724.17129 61.99627 729.6531 61.98607 735.1157 58.540063 739.67166 54.259664 739.92599 50.785894 740.1323 45.471868 735.57217 45.21364 731.05899 44.897676 725.53689 45.663709 719.9566 45.88892 714.39859 46.04999 710.4235 48.22474 707.8507 51.85813 707.09829 56.346059 706.1688 59.857034 708.0183 61.899747 712.77786Z"/>
<path transform="matrix(.14653532,0,0,.14652659,28.5,350.93876)" d="M99 716.0371C99.000087 713.3878 98.946399 711.224 99.011249 709.0637 99.15364 704.32 102.419589 701.033 106.9499 701.0004 111.66336 700.9665 114.88457 704.0575 114.975399 708.9586 115.08017 714.6117 115.065578 720.26907 114.97927 725.9227 114.9082 730.57876 111.381198 734.0343 106.95134 733.9942 103.31979 733.96127 99.058589 729.43759 99.00778 725.50546 98.96911 722.5122 99.00004 719.51797 99 716.0371Z"/>
<path transform="matrix(.14653532,0,0,.14652659,28.5,350.93876)" d="M744.017 222.86368C743.92776 217.37934 746.8141 214.39394 751.3152 213.13788 755.8922 211.86061 760.849 214.50716 763.01498 219.36855 764.3956 222.4673 765.2658 225.85526 765.9174 229.20069 766.647 232.94647 764.53958 235.4007 761.3639 237.1277 758.50399 238.683 755.8857 239.6108 752.91177 237.03199 748.5714 233.26834 745.30618 228.94586 744.017 222.86368Z"/>
<path transform="matrix(.14653532,0,0,.14652659,28.5,350.93876)" d="M659.0765 681.9731C650.63369 688.3209 642.562 694.5755 634.4598 700.7901 627.5097 706.1208 619.46939 703.2767 611 704.1111 611 698.3438 611 692.92587 611 687.5079 611 685.508 611 683.5082 611 681.5083 611 670.6515 611.0153 670.54019 600.4585 669.08779 591.8517 667.9036 583.2064 666.99209 574.5709 666.024 565.25888 664.9799 555.9383 664.0109 546.3265 662.9775 545.8472 660.64718 545.08468 658.59756 545.0597 656.5389 544.93447 646.20779 545.085 635.8735 544.96188 625.54238 544.9115 621.31796 546.47756 618.67489 550.82308 618.1678 560.1471 617.0796 569.4848 616.1066 578.8048 614.9859 588.76419 613.7882 598.7042 612.4312 608.6625 611.22439 617.98037 610.09518 627.3114 609.0749 636.6358 607.99978 642.3585 607.3399 648.0646 606.36386 653.80538 606.07797 660.77096 605.73117 661.982 607.1317 661.99679 613.947 662.01156 620.77987 661.8912 627.61477 662.0232 634.44509 662.2767 647.55856 662.5825 660.6725 663.0568 673.7793 663.1818 677.23239 662.4952 679.9949 659.0765 681.9731Z"/>
<path transform="matrix(.14653532,0,0,.14652659,28.5,350.93876)" d="M1484.026 206.88886C1474.9785 226.2204 1459.8876 236.5363 1439.1356 237.88745 1427.7595 238.62816 1416.2958 238.01988 1404.4312 238.01988 1404.4312 191.73117 1404.4312 144.71488 1404.4312 97.01618 1414.5014 97.01618 1424.6327 96.48486 1434.6831 97.16008 1445.5368 97.889278 1456.0875 100.5251 1465.2865 106.83503 1478.3566 115.800388 1485.9017 128.50461 1488.7728 143.80434 1492.7583 165.04344 1492.1465 186.09355 1484.026 206.88886Z"/>
<path transform="matrix(.14653532,0,0,.14652659,28.5,350.93876)" d="M3222.5897 297.72993C3211.8028 304.71818 3200.1134 304.57826 3188.381 303.58467 3184.6876 303.27183 3181.0269 302.07185 3177.4522 300.95429 3165.2332 297.1343 3164.899 287.55293 3168.6849 278.29637 3170.48 273.9079 3175.1553 270.682 3178.6033 267.00227 3179.1036 266.46858 3180.052 266.04826 3180.7745 266.0748 3192.177 266.49403 3203.6016 266.68269 3214.967 267.59565 3221.6563 268.13298 3228.0023 271.14427 3229.686 278.1149 3231.4698 285.49693 3229.6304 292.626 3222.5897 297.72993Z"/>
<path transform="matrix(.14653532,0,0,.14652659,28.5,350.93876)" d="M3189.2423 143.98336C3198.2579 141.92377 3206.4095 142.56888 3213.208 148.77594 3221.4459 156.29662 3222.4796 165.77956 3219.5133 175.92052 3215.648 189.13356 3202.1627 194.91736 3187.0377 190.6213 3176.7828 187.70854 3170.3868 174.1445 3172.5064 165.01308 3173.3529 161.3678 3173.9473 157.54496 3175.5269 154.21593 3178.1346 148.72 3183.0565 145.68128 3189.2423 143.98336Z"/>
<path transform="matrix(.14653532,0,0,.14652659,28.5,350.93876)" d="M3083.9407 174.3533C3084.6527 183.97652 3086.1824 193.21692 3085.7789 202.37212 3085.297 213.29782 3083.538 224.07215 3076.4517 233.44226 3070.8592 240.83719 3063.439 243.95532 3054.9954 244.84938 3043.6937 246.04615 3032.6466 244.10648 3025.8975 234.01178 3021.827 227.92337 3018.833 220.53707 3017.4749 213.33437 3014.7078 198.65683 3015.1617 183.90938 3019.9427 169.39247 3028.2857 144.05968 3055.849 142.70415 3070.269 152.15381 3078.0274 157.23807 3081.2159 165.5052 3083.9407 174.3533Z"/>
<path transform="matrix(.14653532,0,0,.14652659,28.5,350.93876)" d="M2840.1407 242.386C2831.84 245.3782 2823.6783 245.93231 2815.5037 243.90671 2805.1463 241.34017 2798.7943 234.04152 2795.3675 224.48874 2790.677 211.41313 2790.0809 197.85886 2791.7603 184.03554 2792.8983 174.66803 2795.5872 166.18935 2800.98 158.41483 2806.114 151.01288 2813.5836 147.97492 2821.8988 147.14028 2833.1968 146.00621 2843.6954 148.1906 2851.2486 157.77802 2856.3756 164.28569 2858.7513 172.0008 2859.9149 180.00716 2861.8763 193.5017 2861.7596 206.98468 2857.9722 220.2246 2855.193 229.93875 2850.194 237.95786 2840.1407 242.386Z"/>
<path transform="matrix(.14653532,0,0,.14652659,28.5,350.93876)" d="M2002.9622 508C1985.8516 508 1969.2338 508 1951.907 508 1952.8844 495.88343 1955.4036 484.743 1965.2465 477.59794 1976.0028 469.7896 1988.0807 469.9152 1999.7601 476.01976 2008.6626 480.67289 2013.9232 494.0417 2012.6327 508 2009.6343 508 2006.5448 508 2002.9622 508Z"/>
<path transform="matrix(.14653532,0,0,.14652659,28.5,350.93876)" d="M2257.9425 166.37073C2258.4105 170.98912 2258.8416 175.18447 2259.308 179.72599 2238.525 179.72599 2218.6048 179.72599 2198.69 179.72599 2197.8604 161.3285 2208.4149 145.34465 2226.179 144.05287 2237.7393 143.21224 2247.9254 146.09006 2254.2166 156.85642 2255.8497 159.65106 2256.6968 162.9048 2257.9425 166.37073Z"/>
<path transform="matrix(.14653532,0,0,.14652659,28.5,350.93876)" d="M1626.7035 146.03157C1639.2501 150.38791 1645.5938 167.17708 1643.4813 179.68375 1623.5283 179.68375 1603.5209 179.68375 1583.517 179.68375 1583.0448 155.77245 1600.164 137.57305 1626.7035 146.03157Z"/>
<path transform="matrix(.14653532,0,0,.14652659,28.5,350.93876)" d="M3542.8389 207.0002C3544.756 207.10915 3546.192 207.21793 3547.9913 207.35428 3547.9913 214.9982 3548.008 222.28878 3547.9676 229.57903 3547.9632 230.36467 3547.8013 231.24713 3547.42 231.91858 3540.7874 243.59812 3521.569 250.70973 3508.9017 246.50801 3501.7862 244.14797 3498.1287 239.0257 3497.137 232.14812 3496.0648 224.70984 3498.1929 217.99233 3504.479 213.26627 3510.9425 208.4072 3518.7286 207.68093 3526.3956 207.08008 3531.6859 206.66548 3537.035 207.00019 3542.8389 207.0002Z"/>
<path transform="matrix(.14653532,0,0,.14652659,28.5,350.93876)" d="M2919.0252 851C2931.2257 851.6591 2943.0882 851.3444 2954.5933 853.22109 2969.3365 855.62588 2979.059 867.923 2978.0438 887.59457 2977.385 900.354 2966.8135 911.67666 2952.8389 914.025 2950.901 914.3507 2948.9649 914.94308 2947.025 914.9558 2934.235 915.0399 2921.4449 914.9992 2908.33 914.9992 2908.33 893.6382 2908.33 872.7302 2908.33 851 2911.695 851 2915.1119 851 2919.0252 851Z"/>
<path transform="matrix(.14653532,0,0,.14652659,28.5,350.93876)" d="M2947.388 775.2198C2958.959 778.7878 2965.85 786.13027 2966.8829 797.87948 2967.9534 810.06008 2965.109 821.0929 2953.6485 827.65097 2949.6666 829.92947 2944.8145 831.53897 2940.2647 831.80197 2929.824 832.4056 2919.3245 831.99307 2908.4254 831.99307 2908.4254 812.72286 2908.4254 793.7063 2908.4254 773.55087 2921.3016 774.0635 2934.1463 774.57498 2947.388 775.2198Z"/>
<path transform="matrix(.14653532,0,0,.14652659,28.5,350.93876)" d="M2368.2867 899.21469C2362.5455 904.2213 2357.6568 910.0229 2351.4674 913.52529 2335.1082 922.78256 2315.5557 918.95529 2308.1678 896.7286 2302.2115 878.80838 2301.862 860.37319 2308.144 842.42648 2313.4139 827.3716 2322.7889 819.3054 2338.4935 820.03909 2348.2552 820.4952 2355.419 826.39749 2362.6595 832.11807 2370.6409 838.4242 2374.1746 846.1055 2373.209 856.61788 2372.2537 867.0141 2372.8138 877.57168 2373.087 888.0485 2373.2047 892.56478 2372.1336 896.183 2368.2867 899.21469Z"/>
<path transform="matrix(.14653532,0,0,.14652659,28.5,350.93876)" d="M2455.6475 842.7431C2461.5714 824.0671 2477.886 815.27127 2494.4737 818.43057 2513.9129 822.133 2524.3074 837.44216 2521.48 856.6878 2498.8507 856.6878 2476.1749 856.6878 2452.449 856.6878 2453.508 851.8677 2454.473 847.47659 2455.6475 842.7431Z"/>
<path transform="matrix(.14653532,0,0,.14652659,28.5,350.93876)" d="M3162.9732 875.90597C3175.0174 874.9615 3186.644 874.0772 3198.9705 873.1397 3198.9705 883.0411 3199.502 891.683 3198.669 900.19137 3198.394 903.0006 3194.8258 905.7045 3192.3687 908.0425 3184.7869 915.2568 3176.2464 920.3181 3165.2139 920.0528 3154.1192 919.78598 3144.8348 912.7188 3143.0626 902.6839 3141.1146 891.6507 3147.1929 881.06497 3157.797 877.15029 3159.3216 876.5876 3160.9666 876.3527 3162.9732 875.90597Z"/>
</g>
</svg>
